<?xml version="1.0" standalone="no"?>
<!DOCTYPE svg PUBLIC "-//W3C//DTD SVG 20010904//EN"
 "http://www.w3.org/TR/2001/REC-SVG-20010904/DTD/svg10.dtd">
<svg version="1.0" xmlns="http://www.w3.org/2000/svg"
 width="1062.000000pt" height="896.000000pt" viewBox="0 0 1062.000000 896.000000"
 preserveAspectRatio="xMidYMid meet">

<g transform="translate(0.000000,896.000000) scale(0.100000,-0.100000)"
fill="#000000" stroke="none">
<path d="M0 4480 l0 -4480 5310 0 5310 0 0 4480 0 4480 -5310 0 -5310 0 0
-4480z m3890 2955 c16 -8 48 -41 71 -73 155 -211 292 -387 451 -578 100 -120
184 -221 187 -224 4 -3 30 -31 60 -62 l55 -57 -50 -21 c-85 -36 -115 -54 -150
-93 -19 -20 -34 -35 -34 -32 0 3 0 7 0 10 0 5 -27 38 -69 84 -18 19 -23 21
-18 7 6 -16 5 -17 -8 -6 -34 28 -12 -7 28 -45 52 -49 85 -92 43 -55 -16 14
-47 45 -70 69 -23 24 -50 54 -62 65 -40 41 -46 53 -30 59 11 4 13 1 9 -10 -5
-12 -3 -14 7 -8 9 5 11 4 6 -4 -4 -6 0 -14 11 -18 10 -4 23 -14 30 -22 6 -9
14 -13 17 -10 3 3 -12 26 -33 51 -26 33 -41 44 -49 36 -6 -6 -16 -7 -26 -1
-16 9 -196 216 -191 221 3 4 75 -69 75 -77 0 -3 14 -19 30 -34 17 -16 30 -33
30 -38 0 -15 17 -10 24 6 3 8 2 14 -2 14 -18 -3 -26 2 -16 9 9 5 8 11 -2 20
-9 8 -14 9 -14 2 0 -6 -5 -8 -10 -5 -6 4 -8 11 -5 16 3 5 -1 6 -9 3 -11 -4
-16 0 -16 10 0 10 -12 28 -26 41 -17 16 -22 25 -13 25 8 1 6 6 -7 13 -25 15
-75 72 -93 109 -13 26 -31 29 -31 7 0 -6 5 -7 12 -3 7 5 8 3 3 -5 -5 -8 8 -29
36 -57 24 -24 38 -44 32 -44 -7 0 -39 34 -73 75 -34 41 -57 75 -51 75 5 0 14
-8 20 -17 17 -31 22 -8 5 25 -15 30 -44 44 -44 21 0 -17 -16 -2 -56 54 -20 28
-27 43 -15 33 37 -33 17 15 -27 64 -13 14 -31 37 -40 53 -9 15 -20 27 -24 27
-4 0 -8 6 -8 13 0 8 -11 27 -25 43 -14 16 -31 41 -38 56 -6 15 -17 30 -24 33
-16 5 -16 0 -3 -26 6 -10 8 -19 6 -19 -12 0 -25 40 -20 55 6 13 8 14 15 3 5
-7 9 -8 9 -3 0 18 -15 34 -26 27 -6 -4 -18 -18 -27 -32 -9 -13 -17 -20 -17
-14 0 33 118 149 170 167 30 11 82 7 110 -8z m1510 5 c8 -5 11 -12 7 -16 -4
-4 -15 0 -24 9 -18 18 -8 23 17 7z m56 -64 c75 -35 110 -65 149 -124 25 -39
51 -140 42 -163 -6 -18 -12 -3 -27 73 -12 59 -44 118 -70 126 -11 4 -10 1 3
-12 10 -10 17 -32 17 -54 -1 -37 -1 -37 -15 -12 -7 14 -10 26 -6 28 5 2 -5 18
-21 37 -17 18 -29 36 -28 40 3 15 -85 65 -133 75 -111 24 -195 8 -287 -54 -25
-16 -39 -22 -31 -12 21 26 95 66 149 82 74 21 173 10 258 -30z m1219 9 l40
-24 -32 -1 c-26 0 -42 -12 -92 -66 -33 -37 -58 -70 -55 -75 9 -15 -8 -10 -28
8 -36 32 -14 88 59 150 46 39 56 40 108 8z m113 -62 l27 -27 -30 -8 c-31 -7
-118 -83 -148 -127 -14 -20 -19 -22 -32 -11 -33 27 -19 68 49 136 72 72 93 78
134 37z m-325 -12 c-15 -12 -23 -30 -23 -50 0 -35 -14 -41 -30 -12 -23 44 0
80 50 80 l25 0 -22 -18z m-2815 -118 c23 -29 30 -43 19 -43 -19 0 -41 26 -32
39 3 7 0 8 -9 5 -18 -7 -37 32 -28 55 5 13 6 13 10 0 3 -7 21 -33 40 -56z
m2717 45 c14 -6 25 -16 25 -21 0 -5 -7 -4 -15 3 -23 19 -30 4 -11 -24 22 -34
20 -52 -6 -70 -12 -9 -19 -16 -14 -16 5 0 3 -7 -4 -15 -10 -12 -9 -15 6 -15 9
0 33 5 51 12 26 9 36 9 45 0 10 -10 4 -21 -32 -54 -26 -24 -40 -43 -32 -46 16
-5 5 -22 -14 -22 -22 0 -49 51 -69 133 -24 96 -15 127 42 146 1 1 14 -4 28
-11z m491 -11 c22 -19 28 -34 32 -79 2 -31 0 -64 -6 -74 -7 -13 -9 -6 -5 29 4
34 1 54 -11 72 -15 23 -18 24 -32 10 -9 -8 -19 -15 -24 -15 -5 0 -24 -12 -42
-27 -42 -36 -74 -53 -82 -46 -16 16 -2 49 37 88 71 71 92 77 133 42z m-346
-89 c0 -12 -6 -9 -26 13 -19 22 -19 22 4 8 12 -8 22 -17 22 -21z m-2791 -55
c1 10 12 -1 71 -72 25 -30 44 -61 42 -69 -2 -8 1 -11 7 -8 5 4 28 -17 49 -46
22 -29 48 -62 58 -73 11 -11 42 -47 69 -80 28 -33 59 -69 70 -80 12 -11 68
-74 127 -140 58 -66 129 -142 157 -169 30 -30 46 -53 40 -57 -6 -3 0 -9 14
-13 25 -6 43 -31 28 -40 -9 -6 -30 11 -76 63 -16 19 -24 30 -16 26 10 -5 12
-4 7 4 -4 6 -12 8 -18 5 -6 -4 -13 -2 -17 4 -3 5 -40 46 -81 90 -123 130 -134
143 -113 135 16 -6 16 -5 5 10 -8 8 -19 14 -25 12 -16 -5 -133 132 -129 150 2
10 -3 13 -14 8 -13 -5 -15 -2 -10 15 4 11 2 23 -3 27 -7 4 -8 -1 -4 -12 5 -16
4 -16 -13 2 -61 64 -174 217 -168 227 4 6 3 8 -3 5 -5 -3 -17 3 -26 14 -10 10
-12 19 -6 19 8 0 7 5 -1 15 -7 9 -15 13 -18 10 -8 -8 -31 29 -24 39 3 5 9 1
13 -10 4 -10 8 -15 8 -11z m1262 -51 c-5 -10 -21 -18 -35 -20 -33 -2 -33 4 2
22 36 20 45 20 33 -2z m59 -1 c0 -10 -6 -21 -14 -24 -11 -4 -11 -1 -2 19 13
29 16 30 16 5z m671 -15 c40 -19 46 -25 24 -21 -16 3 -72 10 -123 16 -53 7
-88 15 -81 20 8 5 -2 9 -27 12 -21 3 4 4 57 3 80 -3 104 -7 150 -30z m-808
-13 c-7 -2 -13 -18 -13 -34 0 -18 -4 -28 -10 -24 -5 3 -10 17 -10 30 0 22 12
33 35 33 6 0 4 -2 -2 -5z m62 -23 c-3 -5 -12 -10 -18 -10 -7 0 -6 4 3 10 19
12 23 12 15 0z m1525 -14 c0 -8 -14 -19 -30 -26 -30 -12 -30 -13 -13 -32 17
-19 17 -19 -12 -12 -58 13 -57 37 3 70 39 22 52 22 52 0z m-3155 -36 c-3 -5
-15 -10 -26 -10 -11 0 -33 -7 -49 -15 -17 -9 -30 -13 -30 -10 0 8 81 44 98 45
7 0 10 -4 7 -10z m72 -30 c42 -18 83 -69 83 -100 -1 -8 -8 -1 -17 15 -46 86
-144 110 -219 53 l-29 -21 23 24 c22 23 72 47 102 48 8 0 34 -8 57 -19z m3229
-5 c-3 -8 -1 -15 5 -15 6 0 7 -4 4 -10 -7 -11 -65 -14 -65 -3 0 3 7 15 17 25
20 22 48 24 39 3z m-214 -36 c25 -23 28 -29 13 -25 -54 13 -91 32 -87 44 7 21
41 13 74 -19z m-1497 0 c4 -12 2 -26 -4 -32 -8 -8 -11 -7 -11 5 0 9 -3 23 -6
32 -3 9 -1 16 4 16 6 0 14 -9 17 -21z m575 -34 c0 -19 -4 -35 -9 -35 -10 0
-21 57 -13 65 14 13 22 2 22 -30z m69 -29 c-9 -8 -10 -8 -6 0 4 7 -1 15 -11
19 -16 6 -15 8 3 21 18 14 20 13 23 -7 2 -12 -2 -26 -9 -33z m844 24 c42 -26
60 -50 39 -50 -20 0 -4 -60 27 -102 19 -27 37 -48 40 -48 3 0 16 15 29 33 12
17 22 27 22 21 0 -6 -9 -23 -20 -37 -11 -14 -20 -30 -20 -36 0 -21 -16 -11
-33 22 -40 74 -144 157 -197 157 -25 0 -25 5 3 40 28 37 52 37 110 0z m-378
-23 c-15 -24 -75 -72 -75 -61 0 6 82 84 88 84 1 0 -4 -10 -13 -23z m-1075 -44
c0 -22 -27 -14 -34 10 -11 43 -6 53 14 27 11 -14 20 -31 20 -37z m-1463 5 c-3
-8 -6 -5 -6 6 -1 11 2 17 5 13 3 -3 4 -12 1 -19z m2092 6 c31 -6 31 -7 29 -68
l-2 -61 -3 56 c-5 68 -6 69 -142 69 l-93 0 6 -72 c3 -40 2 -91 -3 -113 -7 -34
-9 -26 -10 50 -2 137 -1 135 -80 135 -67 0 -290 -31 -325 -46 -12 -5 -17 -4
-13 3 7 11 84 28 187 42 77 10 404 14 449 5z m133 -20 c14 -9 8 -86 -12 -153
-27 -90 -28 -91 -70 -75 -34 14 -34 14 -4 8 31 -5 31 -4 52 63 11 37 22 86 24
107 3 38 1 39 -37 52 l-40 13 40 -5 c22 -3 43 -8 47 -10z m-152 -46 c0 -16 -3
-19 -11 -11 -6 6 -8 16 -5 22 11 17 16 13 16 -11z m689 -85 c-71 -119 -286
-331 -494 -489 -18 -13 -17 -13 10 0 17 9 49 30 72 48 23 18 74 57 112 87 39
30 71 58 71 62 0 5 4 8 10 7 15 -4 102 70 141 120 56 71 89 108 89 99 0 -5 -9
-22 -21 -38 -11 -16 -18 -37 -15 -45 4 -10 -1 -18 -14 -21 -11 -3 -20 -11 -20
-18 0 -8 -11 -27 -25 -43 -37 -44 -33 -71 5 -30 21 24 29 28 30 17 0 -9 -19
-39 -43 -65 -24 -27 -60 -76 -82 -109 -65 -101 -88 -118 -270 -200 -101 -45
-298 -45 -336 1 -10 12 -9 13 6 8 14 -6 16 -3 11 14 -6 18 -1 23 31 31 64 18
69 27 17 35 -26 3 -63 6 -82 6 l-35 0 19 21 c18 20 25 21 124 15 126 -7 125
-7 268 111 128 106 298 274 391 386 41 48 76 86 78 83 3 -3 -19 -44 -48 -93z
m-1298 60 c13 -16 12 -17 -3 -4 -10 7 -18 15 -18 17 0 8 8 3 21 -13z m609 -13
c0 -5 -5 -10 -11 -10 -5 0 -7 5 -4 10 3 6 8 10 11 10 2 0 4 -4 4 -10z m-515
-69 c21 -23 36 -41 31 -41 -4 0 -29 23 -56 50 -27 28 -41 46 -32 41 9 -5 35
-28 57 -50z m190 9 c10 -11 16 -20 13 -20 -3 0 -13 9 -23 20 -10 11 -16 20
-13 20 3 0 13 -9 23 -20z m313 1 c3 -9 0 -11 -9 -5 -7 4 -29 11 -49 15 -34 7
-33 7 9 6 28 -1 46 -7 49 -16z m44 -13 c-8 -8 -9 -4 -5 13 4 13 8 18 11 10 2
-7 -1 -18 -6 -23z m1711 9 c-15 -13 -39 -27 -53 -30 -23 -6 -22 -3 10 23 19
16 43 30 53 30 15 0 13 -5 -10 -23z m-1682 -30 c-10 -9 -11 -8 -5 6 3 10 9 15
12 12 3 -3 0 -11 -7 -18z m1523 -31 c11 -4 41 -1 68 5 42 11 50 11 68 -6 21
-19 20 -33 -2 -19 -7 5 -47 9 -88 9 -60 0 -79 4 -97 20 -13 11 -23 26 -23 34
0 10 8 7 28 -11 15 -14 36 -28 46 -32z m-2120 -155 c-1 -1 -7 0 -13 4 -7 4
-10 41 -10 93 l2 87 12 -90 c7 -49 11 -92 9 -94z m1412 108 c-63 -166 -158
-364 -220 -458 -79 -122 -249 -336 -274 -346 -31 -12 -255 -16 -357 -7 -93 9
-85 9 119 11 l218 1 32 33 c127 133 294 376 360 523 24 55 60 132 79 172 20
40 41 88 47 108 7 19 14 33 16 31 3 -2 -6 -33 -20 -68z m-3748 43 c10 -10 62
-92 117 -182 120 -201 299 -479 374 -580 33 -44 77 -89 108 -110 53 -35 69
-56 213 -270 84 -125 101 -160 76 -160 -8 0 -34 -18 -57 -40 -23 -22 -43 -40
-44 -40 -1 0 -1 12 1 28 2 17 1 20 -3 7 l-6 -20 -8 20 c-6 17 -8 15 -8 -10 0
-16 6 -39 14 -49 8 -11 15 -15 15 -8 0 9 6 9 25 0 23 -10 25 -16 23 -67 -1
-43 -2 -47 -5 -18 -2 20 -8 37 -14 37 -5 0 -9 7 -9 15 0 8 -6 15 -13 15 -16 0
-84 80 -97 115 -5 14 -22 30 -37 36 -16 6 -22 13 -16 16 7 3 25 -2 41 -9 26
-13 29 -13 46 9 10 14 16 32 13 42 -2 10 0 25 5 34 12 23 -13 77 -51 110 -38
32 -97 36 -136 11 -20 -13 -25 -25 -25 -57 l0 -40 -31 39 c-17 21 -33 51 -36
66 -3 16 -10 31 -14 34 -5 3 -9 19 -9 35 0 18 4 28 10 24 23 -14 6 38 -50 150
-70 142 -92 180 -118 209 -11 11 -27 35 -35 51 -8 17 -31 48 -51 70 -20 22
-36 45 -36 50 0 13 -22 43 -71 99 -21 22 -38 46 -40 51 -1 6 -21 39 -44 75
-23 36 -55 90 -71 120 -16 30 -33 58 -39 63 -13 10 31 47 56 47 10 0 27 -8 37
-18z m2642 10 c0 -9 -96 -33 -125 -31 -11 1 12 9 50 19 39 10 71 18 73 19 1 0
2 -2 2 -7z m200 -1 c0 -9 -139 -4 -149 5 -2 2 30 4 72 4 43 0 77 -4 77 -9z
m-367 -38 c-7 -2 -19 -2 -25 0 -7 3 -2 5 12 5 14 0 19 -2 13 -5z m2078 -10
c12 -15 12 -16 -5 -10 -10 4 -24 2 -32 -3 -7 -6 -32 -10 -56 -8 l-43 4 35 16
c45 22 84 22 101 1z m-1884 -25 c-3 -7 -5 -2 -5 12 0 14 2 19 5 13 2 -7 2 -19
0 -25z m285 0 c-7 -7 -12 -8 -12 -2 0 14 12 26 19 19 2 -3 -1 -11 -7 -17z
m1736 2 c40 -25 42 -36 2 -15 -16 8 -42 15 -57 15 -22 0 -25 2 -13 10 21 14
31 12 68 -10z m-2430 -25 c-2 -2 -14 -1 -27 2 l-23 6 23 13 c20 11 25 10 27
-2 2 -9 2 -17 0 -19z m-1050 -14 c61 -45 62 -58 1 -16 -64 43 -65 45 -52 45 5
0 28 -13 51 -29z m3306 13 c4 -9 2 -13 -5 -8 -6 4 -33 6 -60 5 -27 0 -49 4
-49 9 0 6 24 10 54 10 39 0 55 -4 60 -16z m-1857 -36 c-3 -7 -5 -2 -5 12 0 14
2 19 5 13 2 -7 2 -19 0 -25z m1838 12 c3 -5 2 -10 -4 -10 -5 0 -13 5 -16 10
-3 6 -2 10 4 10 5 0 13 -4 16 -10z m-2240 -30 c55 -33 51 -35 -25 -19 -63 13
-135 4 -160 -21 -11 -11 -27 -16 -39 -13 -16 4 -37 -11 -89 -63 -153 -155
-179 -338 -87 -624 73 -227 94 -308 101 -387 4 -46 9 -83 12 -83 3 0 19 12 35
28 l28 27 -30 -59 c-31 -57 -38 -109 -22 -149 6 -16 12 -12 46 29 63 76 68 81
49 49 -41 -70 -87 -135 -96 -135 -5 0 -6 -5 -3 -10 4 -6 3 -16 -2 -23 -16 -21
-36 -94 -29 -106 4 -6 22 -11 39 -11 24 0 28 -3 17 -10 -8 -5 -29 -10 -47 -10
-27 0 -31 -3 -26 -17 3 -10 12 -25 20 -35 10 -11 11 -18 4 -23 -17 -10 -26 1
-41 44 -12 36 -11 47 11 115 13 41 26 73 29 71 13 -8 -14 292 -35 385 -9 41
-34 129 -56 195 -60 181 -81 278 -83 385 -1 69 4 108 17 144 61 167 145 276
252 327 82 39 143 39 210 -1z m2198 25 c10 -5 5 -15 -21 -41 -29 -29 -41 -34
-70 -32 l-34 3 22 28 c12 15 31 27 43 28 20 1 20 2 -3 9 -23 7 -21 8 12 9 20
1 43 -1 51 -4z m-1293 -63 l35 -8 -41 -26 -41 -26 -99 23 c-54 13 -126 27
-159 31 -58 7 -59 8 -25 15 42 9 281 3 330 -9z m-1038 -7 c-19 -9 -31 -19 -27
-25 5 -8 14 -5 27 7 16 14 37 18 107 18 92 0 100 -2 249 -71 96 -45 113 -58
62 -47 -18 3 -30 1 -30 -5 0 -6 -8 -13 -17 -16 -10 -3 14 -3 52 -1 124 7 210
-34 158 -76 -31 -26 -92 -130 -115 -197 l-23 -67 -3 63 c-3 69 20 132 65 174
13 12 23 26 23 32 0 5 -18 -8 -40 -29 -22 -21 -40 -42 -40 -46 0 -21 -58 -100
-77 -105 -12 -3 -27 -12 -34 -20 -6 -8 -15 -14 -20 -14 -14 0 3 33 30 58 15
14 25 28 24 31 -1 4 7 7 19 7 11 -1 27 9 35 22 14 20 14 22 -1 16 -9 -3 -14
-10 -11 -14 3 -5 1 -11 -5 -15 -5 -3 -10 0 -10 7 0 9 -3 9 -10 -2 -5 -8 -10
-12 -10 -8 0 4 -13 2 -30 -3 -16 -6 -28 -15 -25 -19 3 -5 -3 -14 -14 -19 -25
-14 -31 -14 -31 -1 0 6 8 10 17 10 9 0 13 3 10 7 -4 3 -17 2 -30 -4 -47 -22
-98 -34 -152 -37 -34 -2 -61 -9 -67 -17 -8 -11 -9 -11 -5 3 3 9 1 19 -6 21 -7
2 -8 8 -3 13 5 5 11 4 13 -3 3 -8 20 -4 56 13 29 13 62 24 73 24 22 0 70 17
179 64 34 15 37 19 22 28 -13 7 -45 1 -116 -21 -127 -40 -187 -40 -260 -4 -30
16 -56 36 -59 45 -5 19 -22 25 -22 7 0 -6 -7 -17 -15 -25 -13 -14 -16 -14 -21
1 -4 9 -3 20 2 24 6 3 11 18 12 34 2 37 25 87 51 115 22 22 21 42 -1 42 -6 0
-9 -3 -5 -6 3 -4 -1 -13 -9 -21 -8 -9 -18 -13 -21 -10 -12 13 70 77 97 77 8
-1 0 -7 -18 -15z m-96 -34 c-10 -11 -15 -24 -11 -30 4 -7 0 -8 -11 -4 -12 4
-15 3 -10 -6 4 -6 3 -18 -3 -25 -15 -18 -20 -95 -9 -126 7 -18 6 -22 -2 -14
-16 16 -21 94 -8 134 13 40 47 90 61 90 6 0 2 -9 -7 -19z m1998 0 c-21 -21
-117 -72 -103 -55 17 21 102 75 108 68 3 -2 0 -8 -5 -13z m346 -11 c-22 -17
-60 -27 -60 -16 0 24 17 36 49 36 l36 0 -25 -20z m-1680 -40 c0 -30 -4 -40
-16 -40 -11 0 -14 5 -10 16 3 9 9 27 12 40 9 35 14 29 14 -16z m342 -1 l52
-12 -23 -18 c-19 -15 -40 -19 -112 -19 -93 0 -110 8 -95 45 7 19 100 20 178 4z
m2504 -74 c27 -27 42 -50 38 -57 -6 -9 -9 -9 -12 0 -2 7 -8 12 -14 12 -5 0 -6
-9 -3 -20 4 -11 3 -19 -2 -18 -14 4 -63 -34 -63 -50 0 -8 -3 -12 -7 -9 -9 9
-43 -23 -43 -40 0 -8 -4 -12 -9 -9 -4 3 -25 -12 -45 -34 -19 -21 -41 -43 -48
-47 -7 -4 -40 -39 -73 -78 -57 -66 -139 -147 -232 -230 -44 -38 -56 -62 -26
-51 13 5 11 0 -6 -18 -14 -15 -29 -26 -35 -26 -6 0 -3 5 7 11 17 10 24 29 9
29 -4 0 -36 -27 -72 -60 -92 -86 -169 -145 -223 -171 l-46 -22 -39 26 c-21 15
-43 27 -50 27 -7 0 -12 4 -12 9 0 5 62 66 138 137 75 71 182 172 237 224 55
53 138 132 185 175 46 44 127 121 180 171 128 122 180 164 202 164 10 0 39
-20 64 -45z m-3743 29 c9 -9 -4 -35 -14 -28 -5 3 -9 12 -9 20 0 14 12 19 23 8z
m-779 -47 c28 -9 44 -22 58 -47 10 -19 23 -34 29 -32 6 1 8 -2 4 -8 -11 -18 6
-100 21 -100 8 0 14 -4 14 -10 0 -5 -6 -9 -12 -7 -8 1 -13 -9 -13 -28 0 -38
-11 -55 -35 -55 -20 0 -30 19 -30 55 0 13 -3 25 -7 27 -5 2 -17 21 -28 43 -11
22 -28 47 -37 56 -10 9 -18 20 -19 25 0 5 -20 25 -43 44 -24 19 -41 38 -39 43
6 11 93 7 137 -6z m-102 -53 c58 -51 131 -174 114 -191 -3 -3 -6 1 -6 10 0 10
-4 17 -8 17 -4 0 -13 15 -20 33 -17 46 -118 165 -130 153 -2 -3 8 -16 22 -29
14 -13 26 -28 26 -32 0 -4 8 -15 19 -24 31 -28 82 -141 63 -141 -5 0 -15 20
-22 43 -11 42 -24 61 -91 134 -16 18 -29 42 -29 53 0 24 10 20 62 -26z m2929
-90 c37 -23 69 -47 73 -52 9 -15 -31 -3 -44 13 -6 7 -19 11 -29 8 -10 -2 -25
3 -35 12 -9 9 -16 13 -16 8 0 -4 -4 -3 -8 2 -4 6 -37 31 -74 55 -90 60 -90 84
0 34 37 -20 97 -56 133 -80z m-3017 91 c3 -8 11 -15 18 -15 31 -1 123 -152
134 -220 l7 -42 -42 6 c-47 6 -113 48 -159 101 l-32 36 0 -36 c0 -99 99 -205
191 -205 16 0 29 -4 29 -10 0 -13 -7 -13 -69 6 -62 18 -122 69 -150 128 -24
48 -28 157 -8 192 40 68 69 89 81 59z m1666 -25 c-8 -5 -22 -9 -30 -9 -10 0
-8 3 5 9 27 12 43 12 25 0z m-476 -35 c-4 -8 -1 -15 5 -15 6 0 11 -4 11 -10 0
-5 -4 -10 -9 -10 -12 0 -23 29 -15 41 9 14 14 10 8 -6z m351 -10 c-16 -8 -41
-14 -55 -14 -17 0 -11 5 20 13 59 17 72 18 35 1z m-295 -5 c0 -5 -2 -10 -4
-10 -3 0 -8 5 -11 10 -3 6 -1 10 4 10 6 0 11 -4 11 -10z m2115 0 c-3 -5 -12
-10 -18 -10 -7 0 -6 4 3 10 19 12 23 12 15 0z m-2471 -52 c-8 -57 20 -212 67
-381 64 -228 88 -340 101 -482 11 -129 11 -137 -10 -197 -30 -88 -36 -137 -23
-186 10 -34 9 -48 -5 -79 -28 -66 -131 -355 -154 -432 l-23 -73 -19 48 c-11
27 -31 72 -44 100 -13 28 -24 57 -24 65 0 8 -9 29 -20 47 -11 17 -28 65 -39
105 -26 99 -99 279 -125 309 -31 36 -144 108 -169 108 -12 1 -34 6 -50 13
l-27 12 24 35 c23 33 24 40 18 122 -7 78 -11 90 -37 118 -48 51 -78 62 -162
59 -64 -2 -78 1 -89 16 -24 33 -16 55 58 153 159 213 353 375 596 498 154 78
164 79 156 22z m-552 -30 l1 -63 7 50 7 50 1 -41 c3 -79 -43 -166 -103 -195
-15 -8 -14 -4 6 14 40 37 57 69 55 104 -2 18 0 30 4 28 4 -2 7 18 8 45 0 28
-4 50 -9 50 -6 0 -7 5 -4 10 15 25 25 5 27 -52z m838 31 c0 -5 5 -9 11 -9 14
0 60 -36 53 -42 -11 -11 101 -40 201 -51 28 -4 28 -4 -5 -6 -68 -2 -227 40
-215 58 3 5 -3 12 -13 15 -10 4 -30 18 -43 32 -17 18 -19 23 -6 18 9 -3 17
-10 17 -15z m76 -4 c9 -8 11 -15 6 -15 -5 0 -15 7 -22 15 -7 8 -9 15 -6 15 4
0 14 -7 22 -15z m289 -30 c-16 -8 -39 -14 -50 -14 -13 0 -7 5 15 13 46 18 73
18 35 1z m1313 -65 c66 -44 123 -83 126 -88 2 -4 -13 -45 -35 -90 -22 -46 -39
-89 -38 -95 3 -18 -12 -92 -21 -106 -4 -7 -28 -13 -56 -13 -68 0 -195 -50
-229 -90 -48 -56 -46 -51 -119 -363 -14 -60 -33 -152 -41 -202 -17 -99 -45
-202 -74 -268 -9 -22 -22 -51 -27 -64 -10 -23 -13 -19 -59 60 -49 86 -94 151
-107 157 -5 2 -8 85 -8 184 0 145 5 210 25 336 35 214 57 322 66 328 4 2 39
-1 77 -7 103 -17 151 -7 209 45 26 24 70 80 97 124 40 67 49 90 50 134 2 52
18 98 35 98 5 0 63 -36 129 -80z m-1441 44 c-3 -3 -12 -4 -19 -1 -8 3 -5 6 6
6 11 1 17 -2 13 -5z m130 -30 c-3 -3 -12 -4 -19 -1 -8 3 -5 6 6 6 11 1 17 -2
13 -5z m113 3 c0 -2 -12 -14 -27 -28 l-26 -24 19 27 c16 23 34 36 34 25z
m-2190 -123 c0 -4 -18 18 -40 49 -22 30 -40 59 -40 63 0 4 18 -18 40 -49 22
-30 40 -59 40 -63z m4289 53 c-19 -17 -46 -41 -60 -52 -35 -29 -129 -78 -136
-71 -16 15 46 78 102 105 131 61 145 64 94 18z m-2229 12 c-11 -8 -6 -9 20 -5
28 5 31 4 17 -5 -11 -7 -33 -8 -55 -3 -35 7 -36 7 -12 14 37 12 47 11 30 -1z
m-45 -19 c17 -7 15 -9 -12 -9 -17 -1 -35 4 -38 9 -7 12 22 12 50 0z m1625 -15
c0 -3 -11 -10 -25 -15 -14 -5 -29 -20 -34 -33 -5 -14 -17 -27 -26 -31 -10 -3
-15 -12 -11 -21 3 -9 0 -15 -8 -15 -8 0 -16 -6 -19 -12 -2 -7 -8 -9 -13 -5 -8
8 16 57 45 91 21 25 91 56 91 41z m81 -23 c-7 -2 -18 1 -23 6 -8 8 -4 9 13 5
13 -4 18 -8 10 -11z m-606 -69 c-20 -33 -46 -69 -58 -80 -41 -38 -124 -53
-172 -33 -13 5 -1 6 31 3 75 -8 114 14 177 102 29 40 53 71 55 70 1 -1 -13
-29 -33 -62z m665 41 c0 -2 -9 0 -20 6 -11 6 -20 13 -20 16 0 2 9 0 20 -6 11
-6 20 -13 20 -16z m-4361 -33 c21 -13 -5 -24 -29 -11 -11 6 -20 13 -20 15 0 8
34 5 49 -4z m629 -26 c-3 -3 -9 2 -12 12 -6 14 -5 15 5 6 7 -7 10 -15 7 -18z
m2259 9 c-3 -3 -12 -4 -19 -1 -8 3 -5 6 6 6 11 1 17 -2 13 -5z m182 -20 c8 -7
-94 -2 -124 6 -18 5 -1 6 45 3 41 -3 77 -7 79 -9z m1776 6 c-3 -5 -14 -10 -23
-10 -15 0 -15 2 -2 10 20 13 33 13 25 0z m-4165 -85 c0 -5 -5 -3 -10 5 -5 8
-10 20 -10 25 0 6 5 3 10 -5 5 -8 10 -19 10 -25z m2545 7 l80 -7 -3 -35 c-1
-19 -7 -69 -12 -110 -49 -364 -60 -470 -60 -585 l0 -127 -33 -33 c-35 -35 -94
-53 -197 -60 l-55 -4 46 8 c54 10 170 64 191 89 16 19 30 52 22 52 -3 0 -15
-9 -27 -20 -35 -34 -106 -69 -125 -64 -12 4 -13 3 -4 -3 9 -7 -3 -13 -40 -21
-37 -9 -55 -9 -62 -2 -8 8 -7 10 4 6 20 -8 73 7 78 22 2 7 -1 12 -8 12 -6 0
-8 -4 -5 -10 3 -5 2 -10 -4 -10 -20 0 -21 19 -1 25 11 4 18 11 15 16 -4 5 -2
9 4 9 5 0 12 -6 15 -12 5 -10 7 -10 12 0 3 7 15 21 26 32 20 18 19 18 -24 4
-23 -8 -59 -23 -78 -33 -48 -25 -80 -34 -80 -22 0 5 8 12 18 14 9 3 4 5 -13 6
-29 1 -27 3 30 40 76 51 128 98 120 111 -3 5 -2 10 3 10 5 0 18 12 27 28 l18
27 -32 -29 c-17 -17 -31 -36 -31 -43 0 -7 -6 -14 -12 -14 -7 -1 -17 -2 -23 -4
-5 -1 -15 -3 -21 -3 -6 -1 -24 -14 -40 -29 -49 -46 -72 -61 -43 -28 14 17 39
47 54 68 24 32 26 40 14 48 -12 7 -11 9 2 9 9 0 22 11 29 25 7 14 17 25 21 25
3 0 15 12 24 28 10 15 -10 0 -44 -33 -56 -55 -78 -86 -48 -69 6 4 10 5 7 1 -3
-3 -9 -6 -15 -7 -5 -1 -25 -16 -44 -32 -18 -16 -36 -27 -39 -23 -3 3 -1 10 6
17 6 6 9 23 6 37 -4 19 0 29 15 39 12 7 21 8 21 3 0 -5 -7 -11 -15 -15 -8 -3
-15 -13 -15 -23 1 -14 6 -12 25 12 14 17 20 32 14 36 -6 3 -4 11 6 19 8 7 15
18 15 24 0 8 -2 8 -8 0 -11 -17 -183 -144 -195 -144 -7 0 -7 4 1 12 19 19 14
32 -5 17 -16 -13 -17 -12 -4 3 7 10 17 16 21 13 9 -5 106 106 102 118 -1 5 1
6 6 3 5 -3 29 16 54 42 35 37 42 48 27 48 -10 0 -16 -2 -13 -5 2 -2 -5 -15
-17 -27 -19 -20 -23 -21 -36 -8 -20 20 -23 19 -87 -26 -31 -22 -61 -40 -67
-40 -6 0 -8 -4 -5 -9 7 -11 -22 -36 -31 -27 -3 3 -1 6 5 6 7 0 12 5 12 10 0
18 -28 11 -58 -15 -42 -36 -50 -31 -9 5 19 17 40 30 46 30 7 0 10 4 6 9 -3 5
0 13 6 17 8 4 9 3 5 -4 -14 -23 5 -12 41 23 33 32 35 51 3 23 -8 -7 -5 -1 8
13 12 14 19 29 15 34 -5 4 -1 5 7 3 8 -3 14 -11 12 -17 -3 -17 1 -14 48 28 24
21 45 47 46 57 2 14 -6 8 -29 -17 -50 -56 -96 -63 -57 -8 13 17 17 30 10 34
-6 4 -9 1 -8 -7 2 -7 -3 -12 -10 -10 -8 1 -11 -2 -7 -8 3 -5 2 -10 -4 -10 -18
0 -21 18 -6 33 8 9 15 21 15 28 0 9 5 8 17 -3 15 -16 18 -15 40 10 13 15 31
41 40 57 9 17 29 49 44 71 16 23 25 45 21 49 -4 5 -2 5 4 2 15 -9 38 19 28 34
-4 7 -3 9 3 6 6 -4 23 10 39 31 15 20 21 31 12 24 -10 -8 -21 -11 -26 -8 -13
8 -113 -119 -107 -135 6 -18 -30 -79 -47 -79 -9 0 -8 -3 2 -10 12 -8 11 -10
-7 -10 -28 0 -30 16 -3 32 11 7 20 18 20 25 0 7 5 13 10 13 6 0 10 7 10 16 0
10 -19 -5 -47 -37 -66 -73 -86 -94 -178 -178 -44 -41 -79 -79 -78 -85 3 -13
-36 -40 -45 -32 -3 3 0 6 7 6 7 0 9 5 5 12 -5 7 -3 8 6 3 10 -6 12 -4 7 7 -3
10 6 29 24 49 16 18 31 41 35 51 3 10 10 16 15 13 5 -4 9 -2 9 4 0 6 24 36 54
68 45 48 51 59 40 71 -19 19 -18 27 2 11 14 -12 20 -9 46 21 112 130 240 242
266 232 9 -3 13 -1 9 5 -4 6 -1 14 5 16 9 4 7 6 -3 6 -9 1 -22 -6 -29 -14 -14
-17 -35 -20 -24 -4 4 7 1 10 -7 7 -8 -3 -13 -11 -11 -17 1 -6 -3 -11 -9 -11
-19 0 -3 25 24 38 15 7 27 17 27 22 0 6 25 7 58 4 31 -3 93 -8 137 -12z m200
0 c-3 -3 -11 0 -18 7 -9 10 -8 11 6 5 10 -3 15 -9 12 -12z m651 9 c-4 -5 0
-11 6 -14 10 -3 10 -7 0 -19 -13 -17 -6 -52 9 -42 5 3 9 0 9 -5 0 -17 -37 -13
-44 5 -9 24 -7 54 4 54 6 0 9 3 9 8 -2 12 1 22 7 22 3 0 3 -4 0 -9z m247 -23
c52 1 85 -13 125 -51 48 -46 39 -50 -25 -12 -32 19 -87 41 -122 49 -35 8 -71
22 -80 31 -14 14 -12 14 24 -1 22 -9 57 -16 78 -16z m-3919 -38 c3 -17 10 -30
16 -30 6 0 6 9 -1 26 -5 15 -8 29 -6 31 8 7 47 -96 57 -146 18 -94 32 -118
169 -284 35 -42 79 -86 97 -98 33 -20 33 -20 16 -49 -17 -30 -42 -47 -42 -30
0 6 5 10 11 10 8 0 8 4 -1 14 -13 17 -43 10 -34 -8 3 -6 -9 5 -26 24 -17 19
-29 29 -25 23 15 -31 -6 -9 -32 32 -15 25 -31 45 -35 45 -5 0 -8 5 -8 11 0 6
-9 24 -20 39 -11 16 -34 57 -51 91 -30 60 -31 63 -13 77 18 14 18 14 -4 9 -17
-4 -23 0 -28 19 -3 13 -10 24 -15 24 -14 0 -98 89 -115 121 -20 40 0 36 32 -6
36 -48 41 -37 10 21 -27 50 -34 80 -16 69 5 -3 15 -23 21 -45 7 -22 23 -49 35
-61 29 -27 31 -12 5 33 -10 18 -22 46 -25 62 -6 25 -5 28 7 18 8 -7 17 -26 21
-42z m2507 7 c-13 -12 -20 -15 -16 -7 14 26 28 41 33 35 3 -3 -5 -16 -17 -28z
m1247 1 c-6 -18 16 -38 41 -38 24 0 25 -4 10 -32 -10 -18 -8 -24 12 -40 l24
-18 -29 10 c-20 7 -32 8 -40 0 -7 -7 -6 -10 2 -10 10 0 10 -5 2 -20 -6 -12 -8
-30 -4 -42 4 -14 2 -18 -5 -14 -6 4 -11 16 -11 27 0 10 -7 19 -15 19 -8 0 -15
4 -15 10 0 5 8 7 18 4 9 -3 5 2 -10 11 -40 23 -37 76 7 132 13 16 18 16 13 1z
m-1188 -24 c0 -2 -7 -4 -15 -4 -8 0 -15 4 -15 10 0 5 7 7 15 4 8 -4 15 -8 15
-10z m-2970 -27 c8 -7 23 -24 33 -39 17 -27 17 -28 -3 -28 -12 0 -30 -5 -41
-10 -15 -8 -24 -6 -41 10 -19 17 -19 20 -4 20 9 0 14 5 11 10 -3 6 -15 10 -26
10 -26 0 -24 25 3 37 25 11 45 8 68 -10z m2872 6 c-6 -2 -9 -10 -6 -15 4 -7 2
-8 -5 -4 -13 9 -5 26 12 25 9 0 8 -2 -1 -6z m1193 -81 c0 -34 -1 -62 -2 -62
-1 0 -13 16 -27 37 -23 34 -24 38 -10 65 24 46 39 30 39 -40z m417 -64 c36
-62 72 -134 82 -160 31 -84 0 -140 -85 -152 -54 -8 -67 3 -98 82 -29 74 -47
98 -87 117 -19 9 -34 23 -34 31 0 23 39 94 55 100 17 7 65 79 65 99 0 37 41
-10 102 -117z m867 130 c-2 -2 -17 -14 -34 -28 l-30 -25 24 28 c14 15 29 27
34 27 6 0 8 -1 6 -2z m425 -60 c-33 -87 -130 -276 -110 -214 7 19 6 20 -14 1
-11 -10 -18 -25 -16 -32 3 -7 0 -15 -6 -19 -7 -4 -8 -3 -4 4 14 23 -10 12 -37
-16 -15 -16 -24 -32 -20 -37 5 -4 3 -5 -3 -2 -7 4 -18 -1 -25 -10 -12 -14 -12
-16 0 -8 10 6 12 4 7 -4 -5 -7 -14 -10 -21 -7 -12 4 -95 -72 -95 -87 0 -11
-69 -107 -109 -152 -19 -22 -52 -51 -73 -65 -21 -14 -36 -30 -34 -37 3 -7 -1
-10 -11 -6 -12 5 -14 1 -8 -18 3 -13 3 -19 -2 -12 -6 8 -12 8 -25 -1 -10 -7
-15 -16 -11 -19 5 -6 -79 0 -120 8 -16 3 -16 1 -5 -13 11 -15 10 -14 -8 1 -11
9 -24 14 -27 10 -4 -3 -7 -1 -7 5 0 7 -6 12 -14 12 -14 0 -26 21 -26 46 0 9 5
12 13 8 6 -4 5 1 -4 12 -15 18 -54 143 -46 150 2 2 11 -21 21 -50 l18 -53 42
15 c22 8 73 20 112 27 51 9 88 23 125 48 71 47 193 162 185 175 -3 5 2 9 12 8
9 0 16 5 14 12 -1 8 2 11 7 8 5 -4 14 2 20 11 6 10 11 14 11 9 0 -5 7 -3 15 4
8 7 12 17 8 23 -3 6 -1 7 5 3 7 -4 22 4 36 18 13 14 27 26 32 26 13 0 54 42
54 56 0 7 15 25 33 39 17 15 25 23 17 19 -8 -4 1 9 20 29 39 42 48 47 26 15
-9 -12 -16 -29 -15 -38 0 -13 1 -13 6 0 3 8 12 23 21 32 8 10 12 24 9 33 -4 8
-3 15 1 15 4 0 13 14 19 30 6 17 14 30 17 30 3 0 -1 -19 -10 -42z m-1494 16
c0 -8 -6 -11 -15 -8 -8 4 -15 9 -15 13 0 4 7 8 15 8 8 0 15 -6 15 -13z m-332
-39 c17 -38 14 -43 -8 -15 -21 27 -25 40 -12 40 5 0 14 -11 20 -25z m49 8 c3
-10 17 -33 30 -51 31 -42 25 -51 -8 -14 -30 33 -53 82 -38 82 5 0 12 -8 16
-17z m-3903 -45 c18 -29 70 -114 115 -188 45 -74 99 -162 120 -195 21 -33 49
-80 63 -105 14 -25 67 -112 118 -195 118 -191 123 -199 109 -204 -14 -4 -60
44 -105 111 -19 27 -34 46 -34 42 -1 -5 -7 2 -14 16 -8 14 -12 28 -10 32 3 5
-2 8 -10 8 -15 0 -32 35 -27 59 1 9 -3 12 -12 8 -9 -3 -18 1 -21 9 -4 10 -1
13 7 9 6 -4 4 0 -5 8 -10 8 -18 22 -18 31 0 10 -4 15 -9 12 -5 -3 -12 6 -16
22 -8 34 -24 54 -38 45 -6 -4 -7 -1 -2 6 4 7 -1 20 -11 31 -27 28 -37 41 -59
83 -11 20 -22 37 -26 37 -4 0 -12 14 -19 30 -7 17 -16 30 -20 30 -4 0 -12 12
-18 26 -22 46 -66 94 -75 81 -5 -7 -6 -2 -2 12 5 17 4 22 -5 16 -9 -5 -11 -4
-6 4 5 7 -2 21 -17 34 -14 12 -28 32 -32 45 -3 12 -11 22 -17 22 -6 0 -8 3 -5
7 4 3 1 13 -5 21 -10 11 -8 17 7 28 37 28 63 17 99 -38z m3806 31 c0 -6 -9 -8
-20 -4 -13 4 -34 -1 -56 -14 -19 -12 -41 -21 -47 -21 -7 0 -21 -13 -32 -28
-16 -22 -20 -43 -20 -112 0 -75 4 -93 32 -152 18 -38 30 -68 28 -68 -8 0 -64
117 -81 167 -31 91 4 189 80 224 45 20 116 25 116 8z m-1106 -14 c-4 -8 -11
-15 -16 -15 -6 0 -5 6 2 15 7 8 14 15 16 15 2 0 1 -7 -2 -15z m1456 -25 c0 -5
-2 -10 -4 -10 -3 0 -8 5 -11 10 -3 6 -1 10 4 10 6 0 11 -4 11 -10z m-1476 -16
c3 -8 2 -12 -4 -9 -6 3 -10 10 -10 16 0 14 7 11 14 -7z m1103 -26 c18 -13 31
-29 28 -36 -3 -7 0 -10 5 -7 6 3 10 -2 10 -11 0 -10 3 -14 6 -11 4 4 18 -6 30
-21 28 -31 32 -53 7 -29 -31 30 -81 67 -89 67 -4 0 -16 7 -26 17 -10 9 -21 13
-26 9 -7 -7 1 -15 64 -63 16 -12 24 -22 19 -22 -11 -1 -39 18 -82 57 -14 12
-30 22 -34 22 -21 0 -6 18 19 23 19 4 34 -1 49 -16 13 -11 25 -18 28 -15 3 3
-8 17 -25 32 -39 32 -28 34 17 4z m1262 -11 c-2 -1 -13 -9 -24 -17 -19 -14
-19 -14 -6 3 7 9 18 17 24 17 6 0 8 -1 6 -3z m-302 -52 c30 -21 83 -104 83
-130 0 -20 -26 -53 -34 -44 -2 2 -11 26 -22 53 -25 69 -75 116 -120 116 -21 0
-33 4 -29 10 9 15 98 12 122 -5z m-3486 -22 c15 -9 31 -24 34 -32 4 -11 1 -10
-14 3 -11 10 -37 24 -58 32 -29 10 -32 13 -15 14 13 0 37 -8 53 -17z m1474
-12 c-14 -14 -17 -14 -25 -1 -11 17 6 31 27 23 12 -5 12 -8 -2 -22z m1972 -18
c31 -34 73 -115 73 -142 0 -23 -22 -40 -28 -23 -2 7 -7 10 -11 8 -4 -3 -20 25
-36 62 -37 88 -41 92 -86 92 -37 0 -48 8 -32 23 3 4 26 7 50 7 35 0 49 -6 70
-27z m570 -9 c-21 -19 -42 -32 -48 -28 -6 3 2 12 18 21 15 8 35 21 43 29 8 8
17 14 20 14 3 0 -12 -16 -33 -36z m-1468 9 c12 3 27 -3 36 -13 9 -10 29 -20
44 -23 36 -7 50 -37 18 -37 -12 0 -33 -3 -47 -5 -22 -5 -22 -4 5 10 l30 15
-45 -5 c-43 -5 -44 -4 -17 8 27 13 28 31 2 20 -16 -5 -75 26 -75 40 0 5 7 4
15 -3 8 -7 24 -10 34 -7z m826 -19 c18 -7 69 -103 79 -150 6 -25 3 -33 -11
-38 -10 -4 -19 -2 -21 3 -2 6 -9 8 -15 4 -7 -3 -9 -3 -5 2 4 4 -6 32 -23 61
-17 30 -27 59 -23 66 4 7 4 10 -1 6 -4 -4 -13 -1 -19 8 -6 8 -21 16 -34 17
-12 0 -22 4 -22 8 0 15 67 23 95 13z m-3414 -40 c9 -11 2 -9 -18 6 -18 13 -33
25 -33 27 0 8 38 -17 51 -33z m1429 15 c0 -5 -4 -8 -9 -4 -5 3 -16 -3 -23 -13
-7 -10 -20 -22 -28 -27 -8 -4 -2 6 14 23 31 33 46 40 46 21z m1147 5 c-3 -3
-12 -4 -19 -1 -8 3 -5 6 6 6 11 1 17 -2 13 -5z m1407 0 c20 -7 11 -24 -12 -24
-15 0 -15 2 -2 10 13 9 13 10 0 10 -8 0 -31 -4 -50 -9 -78 -20 -95 -23 -85
-12 6 5 26 13 45 16 19 3 36 8 39 11 6 6 47 5 65 -2z m-1620 -91 c1 -52 7 -89
19 -112 21 -42 16 -50 -13 -21 l-22 22 5 -71 c3 -41 1 -69 -4 -65 -5 3 -9 -3
-9 -12 0 -10 -7 -26 -17 -36 -9 -10 -13 -21 -8 -26 4 -4 10 -1 12 6 3 6 9 12
14 12 5 0 3 -11 -3 -25 -6 -14 -15 -25 -19 -25 -10 0 -49 -68 -49 -86 0 -11
10 -8 43 11 40 25 33 17 -35 -35 -16 -12 -28 -28 -28 -36 0 -9 -4 -12 -10 -9
-14 9 -12 47 4 86 7 19 21 70 30 114 61 309 80 395 84 391 2 -3 5 -40 6 -83z
m1922 59 c-18 -16 -18 -16 -6 6 6 13 14 21 18 18 3 -4 -2 -14 -12 -24z m214
18 c0 -20 -61 -78 -88 -83 l-27 -5 25 16 c14 9 39 31 55 48 35 37 35 37 35 24z
m-4360 -41 c0 -22 -4 -38 -8 -35 -8 5 -4 76 4 76 2 0 4 -18 4 -41z m3243 -22
c18 -29 36 -60 40 -70 12 -31 -28 -2 -52 38 -11 20 -27 38 -36 41 -15 6 -21
35 -9 47 11 10 22 -1 57 -56z m557 43 c-8 -6 -22 -10 -30 -9 -9 0 -5 6 10 14
27 14 44 10 20 -5z m-2507 -4 c3 -8 -2 -21 -12 -30 -16 -14 -19 -15 -24 -3 -3
9 1 14 11 13 11 -1 16 5 14 17 -3 20 4 23 11 3z m-2213 -40 c0 -12 -5 -7 -19
24 -11 24 -11 24 3 6 9 -11 16 -24 16 -30z m479 10 c-3 -3 -11 5 -18 17 -13
21 -12 21 5 5 10 -10 16 -20 13 -22z m4109 20 c-7 -8 -15 -12 -17 -11 -5 6 10
25 20 25 5 0 4 -6 -3 -14z m-2458 -20 c0 -2 -8 -10 -17 -17 -16 -13 -17 -12
-4 4 13 16 21 21 21 13z m1383 -31 c6 -16 14 -33 20 -36 18 -13 228 -32 282
-26 57 6 64 2 43 -25 -11 -13 -25 -14 -88 -7 -78 10 -150 4 -150 -12 0 -5 -16
-9 -35 -9 -20 0 -37 -6 -43 -15 -5 -10 -15 -13 -25 -9 -22 8 -22 34 -1 34 12
0 10 6 -10 21 -26 20 -35 49 -16 49 6 0 1 9 -10 20 -27 27 -26 52 2 48 14 -2
25 -14 31 -33z m1119 13 c-7 -7 -12 -8 -12 -2 0 14 12 26 19 19 2 -3 -1 -11
-7 -17z m-4132 2 c0 -5 -5 -10 -11 -10 -5 0 -7 5 -4 10 3 6 8 10 11 10 2 0 4
-4 4 -10z m3597 -17 c11 -10 25 -29 32 -43 10 -20 6 -18 -23 12 -32 33 -43 48
-33 48 2 0 13 -8 24 -17z m893 14 c0 -2 -9 -14 -20 -27 -11 -13 -20 -19 -20
-15 0 5 7 17 17 27 15 17 23 22 23 15z m-4960 -42 c0 -5 -5 -3 -10 5 -5 8 -10
20 -10 25 0 6 5 3 10 -5 5 -8 10 -19 10 -25z m2050 15 c0 -5 -5 -10 -11 -10
-5 0 -7 5 -4 10 3 6 8 10 11 10 2 0 4 -4 4 -10z m2441 -13 c-10 -9 -11 -8 -5
6 3 10 9 15 12 12 3 -3 0 -11 -7 -18z m-2201 3 c-20 -13 -33 -13 -25 0 3 6 14
10 23 10 15 0 15 -2 2 -10z m-2236 -75 l38 -50 -41 44 c-23 24 -41 48 -41 54
0 6 1 8 3 6 1 -2 20 -26 41 -54z m2206 41 c-7 -7 -13 -7 -20 0 -6 6 -3 10 10
10 13 0 16 -4 10 -10z m1017 -21 c-6 -19 -14 -35 -19 -35 -5 0 -7 4 -4 9 3 4
10 20 15 35 15 38 21 32 8 -9z m1619 3 c-18 -26 -22 -17 -5 14 6 11 13 17 16
15 3 -3 -2 -16 -11 -29z m-4219 -25 c-3 -10 -5 -2 -5 17 0 19 2 27 5 18 2 -10
2 -26 0 -35z m120 25 c-3 -8 -6 -5 -6 6 -1 11 2 17 5 13 3 -3 4 -12 1 -19z
m-527 5 c-1 -5 -7 -19 -15 -33 l-14 -25 -1 26 c0 14 3 29 7 32 9 9 23 9 23 0z
m150 -33 c8 -4 45 -15 83 -25 73 -20 87 -35 32 -35 -28 0 -33 -3 -29 -17 3
-10 -5 -5 -20 12 -28 32 -31 30 -16 -9 14 -38 -11 -23 -40 24 -14 22 -37 44
-53 49 -30 11 -31 14 10 -52 13 -21 23 -43 21 -48 -2 -6 -16 11 -32 36 -33 52
-52 68 -41 36 3 -11 4 -21 0 -21 -7 0 -35 64 -35 79 0 9 85 -11 120 -29z
m3658 -9 c28 -27 52 -58 52 -67 0 -14 -7 -10 -30 16 l-30 35 20 -58 c10 -32
15 -55 10 -52 -6 4 -10 12 -10 19 0 7 -7 21 -16 32 -8 10 -12 13 -8 5 5 -9 3
-12 -5 -7 -6 4 -9 17 -6 29 2 12 2 16 -1 9 -5 -10 -9 -10 -20 -1 -8 6 -12 15
-9 19 3 4 -2 13 -10 20 -11 9 -15 9 -15 1 0 -7 -5 -9 -10 -6 -6 4 -8 10 -5 15
8 12 -32 19 -44 7 -8 -8 -11 -6 -11 5 0 20 14 26 60 27 29 1 45 -8 88 -48z
m657 39 c-3 -5 -12 -10 -18 -10 -7 0 -6 4 3 10 19 12 23 12 15 0z m-328 -17
c-9 -2 -15 -9 -12 -14 3 -5 -1 -6 -10 -2 -13 5 -14 7 -3 14 7 5 20 8 28 8 11
-1 10 -3 -3 -6z m-4124 -23 c-3 -11 -10 -23 -16 -27 -7 -4 -8 0 -4 11 4 10 7
22 7 27 0 5 4 9 9 9 5 0 7 -9 4 -20z m1827 -6 c0 -8 -5 -12 -10 -9 -6 4 -8 11
-5 16 9 14 15 11 15 -7z m1520 6 c0 -5 -2 -10 -4 -10 -2 0 -12 -3 -22 -7 -16
-6 -17 -5 -4 10 17 19 30 22 30 7z m60 -4 c0 -8 -6 -16 -14 -19 -10 -4 -14 0
-13 14 1 21 27 27 27 5z m670 10 c0 -3 -4 -8 -10 -11 -5 -3 -10 -1 -10 4 0 6
5 11 10 11 6 0 10 -2 10 -4z m517 -73 c-2 -16 -4 -3 -4 27 0 30 2 43 4 28 2
-16 2 -40 0 -55z m-888 44 c5 -13 16 -29 26 -37 9 -7 26 -32 37 -54 l21 -41
-22 19 c-11 11 -21 24 -21 31 0 17 -35 46 -45 38 -4 -5 -4 -2 0 6 6 10 4 13
-6 9 -10 -4 -14 3 -14 23 -1 35 12 38 24 6z m1103 -20 c-18 -18 -32 -38 -32
-44 0 -7 -5 -15 -12 -19 -7 -4 -8 -3 -4 4 4 7 2 12 -3 12 -6 0 -11 -4 -11 -8
0 -14 -29 -48 -30 -35 0 14 104 123 117 123 4 0 -7 -15 -25 -33z m-3017 13
c-3 -5 -14 -10 -23 -9 -14 0 -13 2 3 9 27 11 27 11 20 0z m1542 -6 c-3 -3 -12
-4 -19 -1 -8 3 -5 6 6 6 11 1 17 -2 13 -5z m-2750 -36 c-3 -7 -5 -2 -5 12 0
14 2 19 5 13 2 -7 2 -19 0 -25z m1163 23 c0 -5 -8 -11 -17 -14 -10 -2 -27 -8
-38 -13 -17 -7 -18 -6 -5 8 8 9 18 14 22 12 4 -2 9 0 13 6 8 12 25 13 25 1z
m-1124 -47 c-4 -14 -11 -22 -16 -19 -5 3 -4 19 2 37 13 36 24 21 14 -18z
m3019 26 c3 -5 1 -10 -4 -10 -6 0 -11 5 -11 10 0 6 2 10 4 10 3 0 8 -4 11 -10z
m-2935 -15 c7 -8 18 -15 24 -15 27 0 94 -71 116 -122 12 -29 33 -76 47 -105
14 -29 34 -92 45 -140 10 -48 28 -101 39 -119 10 -17 19 -38 19 -46 0 -8 9
-33 20 -56 24 -49 25 -62 5 -62 -9 0 -12 6 -8 16 5 14 1 15 -28 10 -30 -5 -32
-5 -11 6 12 6 22 17 22 25 0 10 -5 11 -19 3 -11 -5 -30 -10 -43 -10 -20 1 -19
2 8 14 26 12 31 19 30 43 -1 15 -10 41 -20 56 -27 40 -53 126 -50 165 1 17 -2
32 -8 32 -5 0 -6 5 -3 10 4 6 1 17 -5 26 -10 11 -16 12 -29 2 -13 -10 -14 -10
-3 2 6 8 12 21 12 29 0 10 -7 8 -26 -10 -14 -13 -29 -24 -32 -24 -4 0 -6 -6
-5 -13 0 -7 -2 -11 -5 -8 -3 3 -15 -2 -26 -11 -14 -12 -12 -6 7 17 15 19 34
48 43 64 15 27 15 32 -5 71 -12 23 -21 48 -21 55 0 7 -12 24 -27 37 -33 28
-73 25 -112 -10 l-25 -22 21 30 c37 56 38 59 15 53 -12 -4 -22 -3 -22 1 0 24
42 28 60 6z m3021 -12 c13 -16 12 -17 -3 -4 -10 7 -18 15 -18 17 0 8 8 3 21
-13z m-1870 -12 c-6 -10 -23 -26 -38 -36 -26 -16 -25 -15 6 19 39 40 46 44 32
17z m299 -5 c0 -2 -8 -10 -17 -17 -16 -13 -17 -12 -4 4 13 16 21 21 21 13z
m2590 -43 c-11 -17 -11 -17 -6 0 3 10 6 24 7 30 0 9 2 9 5 0 3 -7 0 -20 -6
-30z m-1472 10 c-10 -2 -26 -2 -35 0 -10 3 -2 5 17 5 19 0 27 -2 18 -5z
m-1338 -7 c0 -2 -8 -10 -17 -17 -16 -13 -17 -12 -4 4 13 16 21 21 21 13z m170
0 c0 -2 -8 -10 -17 -17 -16 -13 -17 -12 -4 4 13 16 21 21 21 13z m1322 -30
l27 -33 -55 -54 c-60 -59 -66 -84 -34 -136 14 -23 29 -34 55 -39 42 -8 55 2
117 87 45 62 65 71 85 40 30 -48 125 -31 190 34 40 39 44 41 48 21 12 -61 27
-207 32 -334 l6 -143 -37 17 c-36 18 -70 15 -138 -11 -11 -4 -18 0 -23 14 -3
12 -11 21 -17 21 -6 0 -26 11 -43 25 -18 13 -86 55 -151 94 -131 76 -184 116
-184 137 0 8 -5 14 -10 14 -20 0 -31 50 -19 93 36 140 39 147 77 167 20 10 39
19 42 20 3 0 17 -15 32 -34z m171 -11 c-20 -25 -42 -45 -47 -45 -6 0 10 20 34
45 24 25 46 45 48 45 1 0 -14 -20 -35 -45z m-2858 15 c-3 -5 -12 -10 -18 -10
-7 0 -6 4 3 10 19 12 23 12 15 0z m1065 -4 c0 -3 -4 -8 -10 -11 -5 -3 -10 -1
-10 4 0 6 5 11 10 11 6 0 10 -2 10 -4z m2914 -8 c-13 -23 -37 -48 -46 -48 -4
0 4 14 19 30 28 31 39 39 27 18z m-3949 -18 c-3 -5 -16 -10 -29 -10 -12 0 -27
-5 -33 -11 -6 -6 -17 -9 -25 -7 -8 3 -2 11 17 21 33 18 80 23 70 7z m1002 4
c-7 -7 -77 -23 -77 -18 0 7 43 23 64 23 11 1 17 -2 13 -5z m2716 -11 c-13 -2
-33 -2 -45 0 -13 2 -3 4 22 4 25 0 35 -2 23 -4z m-3693 -13 c0 -5 -9 -10 -19
-10 -11 0 -21 -5 -23 -12 -3 -9 -6 -9 -12 0 -4 8 1 16 16 21 31 13 38 13 38 1z
m3620 6 c0 -9 -122 -87 -132 -84 -7 3 9 15 35 28 26 13 55 32 64 42 14 16 33
24 33 14z m-5071 -35 c31 -29 40 -51 20 -51 -17 0 -51 21 -84 51 l-30 29 31 0
c21 0 42 -10 63 -29z m5311 -1 c-8 -5 -33 -9 -55 -8 l-40 1 45 7 c25 4 50 8
55 8 6 1 3 -3 -5 -8z m-3935 -10 c3 -6 -4 -10 -17 -10 -13 0 -43 -9 -67 -20
-53 -25 -61 -25 -30 -2 58 42 100 54 114 32z m2820 2 c-6 -4 -25 -24 -43 -45
-17 -21 -32 -35 -32 -32 0 12 64 85 74 85 7 0 7 -3 1 -8z m599 -27 c5 -22 4
-26 -4 -15 -5 8 -10 24 -10 34 0 26 6 18 14 -19z m-3927 -63 c18 -24 37 -62
43 -85 6 -23 13 -50 16 -59 5 -16 -4 -18 -98 -18 l-104 0 12 118 c7 64 13 121
13 125 2 18 87 -41 118 -81z m1858 68 c-3 -5 -16 -10 -28 -9 -21 0 -21 1 -2 9
28 12 37 12 30 0z m358 -30 c29 -32 87 -122 87 -134 0 -4 -15 -5 -32 -1 l-33
6 33 -16 c32 -14 71 -51 72 -68 0 -4 -9 -3 -19 3 -25 13 -61 13 -81 0 -11 -7
-6 -8 16 -4 78 15 156 -70 324 -355 40 -69 93 -169 117 -224 63 -142 98 -210
128 -246 30 -35 19 -43 -11 -8 -21 23 -33 39 -84 116 -17 26 -30 38 -30 28 0
-21 -8 -21 -29 -3 -9 7 -41 30 -71 51 -45 31 -50 33 -31 11 14 -14 30 -26 37
-26 6 0 17 -14 24 -31 10 -22 15 -27 21 -17 8 12 13 4 10 -15 -1 -4 11 -23 25
-42 15 -19 22 -35 16 -35 -6 0 -12 3 -14 8 -1 4 -37 35 -78 69 -41 34 -107 89
-147 121 -75 63 -129 88 -164 77 -15 -5 -19 -4 -15 4 4 6 0 11 -10 11 -31 0
-5 14 39 20 l42 6 -60 8 c-67 9 -154 35 -118 36 12 0 27 8 33 18 10 14 11 14
6 0 -4 -13 4 -17 35 -20 21 -2 39 1 39 5 0 5 6 5 13 -1 7 -6 42 -16 77 -21 85
-14 90 -14 56 4 -15 8 -33 12 -39 8 -6 -4 -7 -1 -2 7 6 9 2 10 -15 5 -14 -5
-20 -3 -16 3 4 7 -11 10 -41 9 -74 -2 -62 23 25 48 22 6 31 25 12 25 -5 0 -10
-4 -10 -10 0 -5 -19 -10 -42 -10 -28 0 -38 -3 -30 -9 11 -7 10 -10 -3 -15 -24
-9 -37 -7 -30 3 9 15 -72 23 -204 19 -103 -2 -118 -1 -94 9 15 7 46 13 68 13
81 2 132 16 161 44 l29 28 -35 -21 c-19 -12 -46 -21 -60 -21 -22 1 -23 2 -7
11 9 5 22 7 27 4 6 -3 10 -1 10 4 0 6 8 11 18 12 14 0 14 2 -3 9 l-20 9 20 2
c11 1 25 2 32 2 6 0 9 5 7 12 -3 7 -15 11 -27 8 -22 -4 -22 -4 -3 11 11 9 29
16 40 16 15 0 17 3 8 9 -15 9 -1 24 39 40 l24 10 -25 0 c-14 1 -30 -7 -37 -18
-7 -11 -34 -24 -65 -31 -51 -12 -111 -30 -152 -46 -15 -6 -17 -4 -11 6 6 10 1
11 -21 6 -26 -5 -25 -4 9 14 45 25 48 33 7 18 -17 -5 -39 -23 -51 -39 -11 -16
-28 -29 -37 -28 -12 0 -11 3 6 9 12 5 22 11 22 14 0 9 -45 3 -58 -8 -10 -7
-16 -6 -22 4 -10 16 16 57 43 65 21 8 22 24 2 31 -8 4 -15 13 -15 21 0 11 7
13 25 9 19 -5 28 -1 41 19 11 16 23 24 38 21 11 -2 15 -1 9 1 -7 3 -13 8 -13
13 0 5 -13 1 -29 -8 -21 -12 -26 -19 -18 -25 7 -5 -3 -7 -24 -4 -28 4 -42 0
-65 -19 -16 -13 -35 -23 -42 -24 -7 0 -10 -4 -7 -10 3 -5 -11 -17 -32 -27 -58
-26 -60 -26 -33 -7 14 9 27 19 30 21 2 2 -2 8 -10 13 -13 8 -13 10 1 10 16 0
100 39 85 40 -5 0 -3 7 4 15 10 12 10 15 -3 15 -8 0 -17 -3 -20 -7 -2 -5 -2
-2 -1 5 5 19 -44 15 -106 -9 -30 -11 -50 -15 -43 -8 20 20 84 39 138 40 39 1
46 4 33 12 -15 10 -15 12 0 24 15 11 15 14 2 23 -11 7 -16 5 -18 -5 -4 -18
-28 -20 -35 -2 -4 8 -8 9 -14 1 -4 -6 -17 -14 -28 -18 -16 -6 -17 -9 -5 -17
11 -7 7 -8 -12 -3 -17 4 -28 2 -28 -4 0 -6 -11 -9 -25 -8 -34 4 -45 16 -14 16
13 0 38 9 54 20 36 24 22 26 -29 5 -36 -15 -47 -10 -24 13 17 17 0 28 -22 14
-11 -7 -30 -12 -42 -11 -22 1 -20 2 22 15 12 4 13 6 0 14 -19 12 -10 15 134
51 101 26 98 31 -9 14 -30 -5 -36 -4 -25 4 11 8 3 10 -35 9 -27 -1 -53 -6 -56
-11 -3 -5 -9 -2 -12 6 -4 12 15 15 111 20 65 3 153 15 197 26 44 10 94 23 110
27 17 4 36 6 43 5 8 -1 34 14 60 33 25 20 48 36 52 36 4 0 19 -14 33 -30z
m-1064 -37 c-10 -31 -17 -58 -14 -61 2 -2 22 10 43 27 57 44 62 38 10 -11 -59
-57 -81 -91 -108 -166 -13 -34 -25 -61 -27 -59 -2 2 4 23 12 47 18 51 18 53 4
44 -13 -7 -10 3 27 110 13 38 27 72 31 75 4 3 8 12 9 19 2 28 5 32 18 32 12 0
12 -10 -5 -57z m621 48 c0 -4 -28 -8 -62 -8 -61 0 -61 0 -18 7 68 11 80 11 80
1z m-1270 -17 c-30 -8 -64 -13 -75 -11 -11 2 5 8 35 14 79 15 105 13 40 -3z
m1373 9 c-7 -2 -21 -2 -30 0 -10 3 -4 5 12 5 17 0 24 -2 18 -5z m2157 3 c0 -2
-7 -6 -15 -10 -8 -3 -15 -1 -15 4 0 6 7 10 15 10 8 0 15 -2 15 -4z m-2696 -39
c-9 -5 -31 -5 -52 1 -37 10 -37 10 15 9 36 -1 48 -4 37 -10z m1677 -23 c-5
-16 -10 -21 -10 -12 -1 18 10 51 15 45 2 -1 -1 -16 -5 -33z m-2537 16 c-12
-12 -106 -31 -143 -29 -14 1 7 7 47 14 39 6 75 15 79 18 3 4 11 7 17 7 6 0 7
-3 0 -10z m946 0 c-14 -4 -19 -8 -11 -9 8 -1 12 -3 9 -6 -7 -8 -38 5 -38 16 0
5 15 9 33 8 30 -1 31 -1 7 -9z m70 -14 c-4 -4 -16 -4 -26 2 -16 9 -14 10 8 9
15 -1 23 -6 18 -11z m123 -3 c-7 -2 -21 -2 -30 0 -10 3 -4 5 12 5 17 0 24 -2
18 -5z m-2588 -23 c8 -13 -5 -13 -25 0 -13 8 -13 10 2 10 9 0 20 -4 23 -10z
m3445 -24 c0 -13 -6 -36 -14 -50 -11 -21 -11 -34 -3 -56 9 -23 8 -33 -1 -42
-9 -9 -15 -8 -27 8 -20 26 -19 45 8 109 23 59 37 70 37 31z m-2142 7 c-10 -2
-26 -2 -35 0 -10 3 -2 5 17 5 19 0 27 -2 18 -5z m-229 -83 c0 -23 -15 7 -22
45 l-6 30 14 -30 c8 -16 14 -37 14 -45z m1261 54 c0 -2 -15 -4 -32 -4 -23 0
-29 3 -19 9 12 8 51 4 51 -5z m145 1 c6 -2 -18 -4 -52 -4 -35 -1 -63 3 -63 8
0 7 90 4 115 -4z m3092 -1 c27 -9 59 -24 72 -33 22 -17 23 -19 7 -49 -15 -30
-19 -31 -64 -27 l-47 5 49 -13 c46 -11 52 -16 77 -67 35 -68 35 -93 0 -150
-31 -51 -65 -64 -142 -54 -46 5 -46 6 -88 87 l-42 81 42 60 41 61 -42 37 c-42
37 -42 37 -73 22 -18 -9 -47 -27 -64 -41 -31 -23 -33 -27 -33 -89 l0 -64 63 0
63 0 37 -73 c39 -78 47 -113 23 -104 -8 3 -22 -5 -32 -18 -19 -25 -51 -45 -38
-23 5 8 2 9 -11 4 -16 -6 -16 -4 -4 10 12 14 11 16 -6 12 -11 -2 -19 -11 -19
-21 2 -22 2 -22 -30 8 -27 25 -56 33 -56 16 0 -6 11 -22 24 -37 19 -23 32 -28
70 -28 25 -1 46 -4 46 -8 0 -5 -20 -8 -45 -8 -53 0 -76 19 -113 93 -28 55 -27
61 2 120 31 60 20 61 -16 2 -15 -25 -32 -45 -38 -45 -14 0 -13 89 1 131 26 77
137 189 189 189 11 0 20 4 20 9 0 24 110 27 177 5z m-5332 -22 c-3 -3 -11 0
-18 7 -9 10 -8 11 6 5 10 -3 15 -9 12 -12z m2286 0 c-7 -2 -18 1 -23 6 -8 8
-4 9 13 5 13 -4 18 -8 10 -11z m126 12 c-3 -3 -12 -4 -19 -1 -8 3 -5 6 6 6 11
1 17 -2 13 -5z m-1411 -19 c-36 -19 -42 -19 -26 0 7 8 22 15 34 15 18 0 17 -2
-8 -15z m13 -31 c2 -2 -10 -7 -28 -10 -40 -8 -50 -24 -15 -24 26 0 27 -1 9
-20 -10 -11 -34 -22 -54 -25 -63 -10 -86 -17 -73 -22 6 -3 12 -9 12 -15 0 -7
-25 -9 -77 -4 -43 5 -112 8 -155 8 -60 1 -75 4 -71 15 3 7 0 13 -6 13 -6 0
-11 -7 -11 -15 0 -11 -16 -14 -85 -12 -47 1 -85 5 -85 8 0 4 -20 4 -45 2 -34
-4 -52 -1 -77 16 l-33 21 33 0 c37 0 142 32 125 37 -6 2 -37 -3 -69 -11 -33
-9 -64 -11 -72 -7 -11 6 -5 10 21 15 19 4 49 14 67 23 30 15 38 14 119 -6 114
-30 244 -37 380 -21 92 10 111 16 116 31 5 15 13 17 38 12 18 -3 34 -7 36 -9z
m1313 -61 c-6 -2 -10 -9 -6 -14 3 -5 1 -9 -4 -9 -6 0 -12 7 -16 15 -4 11 1 15
17 14 12 0 16 -3 9 -6z m-551 -30 c-8 -15 -10 -15 -11 -2 0 17 10 32 18 25 2
-3 -1 -13 -7 -23z m459 7 c-19 -13 -30 -13 -30 0 0 6 10 10 23 10 18 0 19 -2
7 -10z m-1860 -41 c0 -12 -32 -19 -44 -10 -6 5 -20 11 -31 13 -11 3 1 5 27 4
27 -1 48 -4 48 -7z m1385 -9 c-7 -21 10 -28 18 -7 4 9 6 9 6 0 1 -17 -19 -27
-30 -16 -5 5 -7 17 -3 26 9 24 17 21 9 -3z m769 -6 c5 -12 2 -15 -10 -10 -9 4
-23 1 -31 -5 -7 -7 -16 -9 -19 -6 -4 4 36 32 52 37 1 0 5 -7 8 -16z m-317 0
c-3 -3 -12 -4 -19 -1 -8 3 -5 6 6 6 11 1 17 -2 13 -5z m-1207 -10 c0 -9 -68
-34 -92 -33 -13 0 -2 6 25 13 26 7 50 16 54 19 8 8 13 9 13 1z m-353 -20 c-3
-3 -12 -4 -19 -1 -8 3 -5 6 6 6 11 1 17 -2 13 -5z m1543 2 c0 -2 -9 -6 -20 -9
-11 -3 -18 -1 -14 4 5 9 34 13 34 5z m383 -48 c-15 -15 -29 -26 -31 -23 -2 2
3 11 12 20 20 21 21 32 1 15 -8 -7 -15 -8 -15 -2 0 5 10 16 23 25 34 23 41 -2
10 -35z m-1714 26 c8 -7 -54 -2 -79 6 -17 6 -9 7 25 3 28 -3 52 -7 54 -9z
m891 -17 c0 -5 -4 -6 -9 -3 -4 3 -6 -6 -3 -21 l5 -26 34 39 34 39 -40 -62
c-21 -35 -42 -75 -46 -90 -11 -45 -75 -176 -82 -169 -4 3 -2 11 4 17 6 6 9 18
6 27 -5 11 -3 13 6 7 10 -6 11 -2 6 15 -5 16 -4 20 5 15 8 -5 11 -1 9 11 -5
35 11 94 26 94 8 0 15 5 15 11 0 5 -4 7 -10 4 -14 -9 -13 8 6 72 11 39 19 52
25 42 5 -8 9 -18 9 -22z m387 17 c-3 -3 -12 -4 -19 -1 -8 3 -5 6 6 6 11 1 17
-2 13 -5z m-1451 -20 c50 -8 127 -14 174 -12 81 2 86 1 114 -25 16 -15 33 -27
37 -27 5 0 9 -6 9 -14 0 -16 -21 -26 -58 -26 -61 0 -279 -53 -334 -81 -44 -22
-54 -24 -55 -6 -1 6 -4 56 -8 110 -9 113 -20 106 121 81z m-723 -1 c-7 -2 -36
-32 -64 -66 -35 -42 -49 -54 -44 -37 4 14 12 31 18 38 7 9 6 11 -7 6 -9 -3
-23 -18 -31 -33 -13 -24 -14 -24 -15 -4 0 12 6 23 13 26 6 2 9 8 5 12 -11 12
-39 -16 -55 -52 -17 -43 -17 -97 3 -136 l15 -32 -20 25 c-15 19 -21 40 -21 83
0 49 5 66 30 103 39 55 72 73 135 73 28 0 44 -3 38 -6z m-17 -63 c-25 -27 -46
-54 -46 -60 0 -5 -5 -10 -10 -10 -6 0 -4 12 4 28 19 34 74 92 88 92 6 0 -10
-22 -36 -50z m489 40 c-3 -5 -12 -10 -18 -10 -7 0 -6 4 3 10 19 12 23 12 15 0z
m5084 -37 c0 -33 -3 -42 -8 -29 -8 20 -16 12 -75 -74 l-17 -25 7 28 c4 17 2
27 -5 27 -6 0 -11 -10 -12 -22 0 -13 -3 -17 -6 -10 -8 20 3 53 36 105 23 36
37 47 56 47 23 0 25 -3 24 -47z m-5540 -22 c-44 -49 -59 -59 -59 -41 0 14 75
90 90 90 7 0 -7 -22 -31 -49z m2541 45 c0 -2 -7 -7 -16 -10 -8 -3 -12 -2 -9 4
6 10 25 14 25 6z m1670 -9 c0 -8 -8 -22 -19 -31 -17 -16 -19 -16 -24 6 -6 22
6 38 31 38 6 0 12 -6 12 -13z m137 2 c-9 -6 -21 -8 -26 -4 -5 3 -13 0 -17 -6
-4 -8 -3 -9 4 -5 7 4 12 2 12 -3 0 -6 -4 -11 -10 -11 -5 0 -22 -13 -37 -30
-14 -16 -32 -30 -39 -30 -7 0 -18 -8 -23 -17 -9 -16 -10 -16 -11 3 0 47 75
110 133 112 26 1 29 -1 14 -9z m-4311 -43 c-25 -24 -52 -58 -61 -76 -19 -37
-30 -35 -16 4 13 33 89 116 107 116 7 0 -6 -20 -30 -44z m5534 -20 c-6 -31
-14 -56 -17 -56 -2 0 -2 14 1 30 3 17 9 44 12 61 3 17 8 28 11 26 3 -3 0 -31
-7 -61z m-5445 20 c9 -14 18 -51 20 -83 4 -47 3 -51 -4 -25 -5 19 -14 39 -21
45 -10 10 -11 4 -7 -28 4 -24 3 -34 -2 -26 -5 8 -14 10 -22 5 -12 -6 -12 -5
-1 8 11 14 10 16 -8 11 -11 -3 -23 -9 -26 -14 -8 -13 -42 -11 -47 4 -4 9 -8 8
-16 -3 -22 -31 -10 2 15 42 56 89 91 107 119 64z m1485 -43 c11 -26 19 -51 17
-57 -4 -10 -26 35 -41 82 -13 39 3 23 24 -25z m1085 37 c-3 -5 -12 -10 -18
-10 -7 0 -6 4 3 10 19 12 23 12 15 0z m-252 -7 c-7 -2 -19 -2 -25 0 -7 3 -2 5
12 5 14 0 19 -2 13 -5z m152 -3 c3 -5 2 -10 -4 -10 -5 0 -13 5 -16 10 -3 6 -2
10 4 10 5 0 13 -4 16 -10z m-218 -6 c-3 -3 -12 -4 -19 -1 -8 3 -5 6 6 6 11 1
17 -2 13 -5z m273 -4 c-8 -5 -19 -10 -25 -10 -5 0 -3 5 5 10 8 5 20 10 25 10
6 0 3 -5 -5 -10z m154 -5 c-4 -8 -11 -15 -16 -15 -6 0 -5 6 2 15 7 8 14 15 16
15 2 0 1 -7 -2 -15z m626 -10 c-14 -8 -32 -14 -40 -14 -8 0 -1 6 15 14 40 18
57 18 25 0z m-1140 -5 c-8 -5 -22 -9 -30 -9 -10 0 -8 3 5 9 27 12 43 12 25 0z
m255 0 c-3 -5 1 -10 9 -10 8 0 18 5 21 10 3 6 14 10 23 10 9 0 -11 -16 -46
-35 -34 -19 -65 -35 -68 -35 -10 0 21 26 39 33 9 3 17 10 16 14 -2 13 1 23 7
23 3 0 2 -4 -1 -10z m1097 -42 c49 -23 88 -45 88 -49 0 -13 -122 -170 -136
-176 -8 -3 -14 -10 -14 -17 -1 -10 -49 -52 -53 -44 -1 1 -8 13 -15 26 -7 12
-10 35 -6 50 4 17 2 23 -3 14 -7 -9 -18 9 -39 60 -16 40 -29 78 -29 83 0 6 -6
14 -12 18 -24 15 -13 32 35 54 67 30 86 28 184 -19z m-2736 15 c-3 -4 -12 -8
-19 -9 -126 -18 -296 -93 -348 -152 -28 -31 -30 -40 -26 -86 2 -28 7 -62 11
-76 3 -14 -3 -5 -14 19 -34 73 -35 88 -7 130 39 59 144 123 242 150 109 28
176 39 161 24z m1559 -43 c-3 -5 -12 -10 -18 -10 -7 0 -6 4 3 10 19 12 23 12
15 0z m-39 -19 c-6 -9 -46 -22 -46 -15 0 3 10 9 23 14 29 11 29 11 23 1z
m1768 -16 c-15 -14 -29 -23 -32 -20 -8 8 29 45 45 45 9 0 3 -10 -13 -25z m116
-30 c35 -25 68 -51 72 -58 12 -19 9 -33 -5 -17 -7 9 -42 38 -79 65 -38 27 -68
50 -68 52 0 10 22 -2 80 -42z m-3610 15 c-8 -5 -19 -10 -25 -10 -5 0 -3 5 5
10 8 5 20 10 25 10 6 0 3 -5 -5 -10z m3535 -8 c-3 -3 -11 0 -18 7 -9 10 -8 11
6 5 10 -3 15 -9 12 -12z m-3585 -13 c-8 -5 -28 -17 -45 -26 -34 -18 -19 3 17
22 28 16 49 19 28 4z m4814 -20 c-10 -11 -28 -25 -39 -31 -11 -6 -4 4 15 20
41 36 51 41 24 11z m-1304 1 c0 -5 -7 -10 -15 -10 -8 0 -15 5 -15 10 0 6 7 10
15 10 8 0 15 -4 15 -10z m70 -25 c28 -14 50 -27 50 -30 0 -6 -67 24 -95 42
-33 21 -7 15 45 -12z m-2385 -41 c86 -37 127 -65 83 -57 -18 3 -32 -7 -61 -45
-21 -26 -47 -53 -57 -60 -17 -10 -19 -8 -18 21 1 36 33 85 63 97 16 7 16 9 3
9 -18 1 -80 -65 -141 -152 -22 -31 -42 -55 -44 -53 -8 8 89 158 130 203 l30
32 -38 7 c-39 7 -42 5 -71 -42 -7 -12 -15 -15 -25 -8 -8 5 -18 9 -24 9 -15 0
-75 -67 -81 -93 -6 -20 -44 -52 -44 -37 0 11 97 150 118 168 17 16 59 33 85
36 5 1 46 -15 92 -35z m2165 20 c0 -9 -65 -84 -73 -84 -5 0 -5 10 -1 23 18 59
24 67 49 67 14 0 25 -3 25 -6z m1380 -4 c-8 -5 -22 -9 -30 -9 -10 0 -8 3 5 9
27 12 43 12 25 0z m-1055 -40 c12 -19 -12 -10 -31 11 -19 22 -19 22 3 10 12
-6 25 -16 28 -21z m943 13 c-16 -2 -40 -2 -55 0 -16 2 -3 4 27 4 30 0 43 -2
28 -4z m-2107 -34 c5 -11 7 -19 4 -19 -6 0 -45 38 -45 45 0 11 31 -9 41 -26z
m-781 17 c0 -2 -8 -10 -17 -17 -16 -13 -17 -12 -4 4 13 16 21 21 21 13z m123
-41 c27 -26 45 -51 41 -57 -4 -6 -3 -8 3 -5 11 7 69 -40 60 -49 -4 -4 -13 -2
-21 5 -10 9 -15 8 -19 -2 -3 -9 5 -13 27 -13 20 0 30 -4 28 -13 -1 -7 2 -10 7
-7 5 4 19 -7 30 -23 l20 -28 -73 -13 c-41 -7 -90 -11 -110 -8 -20 2 -36 2 -36
-2 0 -3 -28 -6 -63 -6 -49 -1 -55 0 -29 6 44 10 48 16 22 30 -25 13 -42 4 -20
-10 11 -7 5 -10 -20 -9 -29 0 -31 2 -15 9 19 8 19 9 -3 9 -19 1 -22 5 -17 24
5 20 5 20 -9 -3 -11 -18 -15 -20 -16 -8 0 9 15 34 33 57 17 22 52 67 77 100
25 33 47 60 50 60 3 1 27 -20 53 -44z m1597 -24 c-11 -23 -20 -47 -19 -54 2
-13 -11 -49 -21 -57 -3 -3 -23 -26 -44 -53 -41 -50 -62 -58 -28 -10 10 15 25
46 32 68 7 22 22 49 34 61 11 11 30 37 41 57 26 50 32 39 5 -12z m-2416 31 c3
-5 -1 -9 -9 -9 -8 0 -12 4 -9 9 3 4 7 8 9 8 2 0 6 -4 9 -8z m-290 -32 c5 -5
-8 -5 -30 1 -57 15 -64 20 -19 13 22 -3 44 -10 49 -14z m682 -15 c61 -20 118
-41 128 -48 9 -7 18 -28 20 -47 2 -19 1 -26 -1 -15 -10 43 -53 64 -53 26 0
-11 -5 -23 -11 -27 -8 -4 -9 1 -4 17 12 40 11 44 -15 47 -33 3 -89 -32 -88
-55 2 -26 -22 -93 -33 -93 -5 0 -9 5 -9 10 0 25 -19 5 -39 -39 -11 -28 -25
-53 -31 -56 -19 -12 66 159 112 227 22 32 17 48 -16 48 -34 0 -52 -19 -93
-101 -38 -75 -48 -82 -80 -57 -10 8 -9 16 6 37 23 33 43 71 37 71 -2 0 -18
-21 -35 -47 -16 -27 -39 -59 -51 -73 l-21 -25 17 35 c29 61 125 200 138 200 7
0 62 -16 122 -35z m1167 2 c16 -10 26 -21 24 -23 -7 -7 -66 30 -72 44 -5 14 2
11 48 -21z m933 -86 c-55 -78 -96 -123 -60 -65 43 69 107 155 111 150 3 -3
-20 -41 -51 -85z m-2850 63 c19 -15 19 -16 -1 -8 -36 13 -85 17 -85 6 0 -15
28 -23 33 -9 2 7 8 9 11 5 4 -3 -1 -15 -12 -26 l-20 -20 -39 33 -38 34 66 1
c45 0 71 -5 85 -16z m326 -14 c-9 -16 -20 -30 -24 -30 -4 0 1 13 10 30 9 16
20 30 24 30 4 0 -1 -13 -10 -30z m638 11 c0 -5 -7 -12 -16 -15 -14 -5 -15 -4
-4 9 14 17 20 19 20 6z m-1542 -25 c6 -13 13 -41 16 -63 6 -34 4 -33 -10 12
-9 28 -21 56 -26 63 -6 7 -7 12 -1 12 5 0 15 -11 21 -24z m623 7 c13 -16 12
-17 -3 -4 -17 13 -22 21 -14 21 2 0 10 -8 17 -17z m632 -13 c-3 -12 -8 -19
-11 -16 -5 6 5 36 12 36 2 0 2 -9 -1 -20z m1308 3 c13 -16 12 -17 -3 -4 -10 7
-18 15 -18 17 0 8 8 3 21 -13z m619 1 c0 -11 -28 -33 -34 -27 -6 6 -10 -12 -7
-30 1 -5 -3 -6 -9 -2 -5 3 -10 1 -10 -5 0 -6 -4 -9 -8 -6 -10 6 -8 32 3 59 7
16 65 26 65 11z m-3739 -17 c15 -7 72 -45 126 -86 88 -65 99 -76 87 -90 -8 -9
-21 -25 -30 -36 -15 -20 -15 -20 -10 3 3 12 9 32 13 44 4 14 2 19 -5 15 -5 -4
-12 -1 -15 5 -2 7 -11 -2 -21 -19 -16 -33 -33 -46 -23 -19 3 8 -7 24 -25 38
-112 86 -145 107 -157 103 -12 -5 -12 -3 0 11 13 16 11 17 -14 10 -33 -8 -28
10 7 24 28 12 36 11 67 -3z m1426 -143 c32 -28 86 -65 121 -84 92 -49 66 -50
-33 -1 -63 31 -96 55 -132 96 -26 30 -52 55 -57 55 -4 0 -6 -14 -4 -31 l5 -31
-18 23 c-29 37 -32 58 -14 85 l16 25 29 -43 c16 -24 55 -66 87 -94z m1843 121
c7 -9 8 -15 2 -15 -5 0 -12 7 -16 15 -3 8 -4 15 -2 15 2 0 9 -7 16 -15z m804
-10 c-4 -8 -11 -15 -16 -15 -6 0 -5 6 2 15 7 8 14 15 16 15 2 0 1 -7 -2 -15z
m-848 -47 l19 -21 -27 18 c-29 18 -34 25 -20 25 5 0 17 -10 28 -22z m794 -18
c-17 -22 -34 -40 -36 -40 -9 0 51 80 59 80 5 0 -6 -18 -23 -40z m248 -15 c176
-42 655 -165 659 -169 2 -1 -52 -24 -120 -51 -67 -26 -144 -58 -172 -70 -27
-13 -79 -35 -115 -50 -36 -15 -78 -33 -95 -40 -177 -77 -248 -105 -251 -102
-9 9 519 252 635 292 l64 22 -109 26 c-60 15 -197 47 -304 71 -192 44 -392
103 -357 105 10 1 84 -15 165 -34z m-3195 8 c3 -10 11 -48 18 -85 10 -54 10
-70 -1 -82 -20 -25 -30 -19 -30 17 -1 17 -7 59 -15 92 -8 33 -15 63 -15 68 0
15 39 6 43 -10z m-1151 -59 c46 -37 86 -70 91 -73 4 -4 -3 -17 -16 -29 l-23
-22 -34 28 c-19 15 -44 36 -55 47 -52 50 -89 76 -101 71 -8 -3 -14 -1 -14 4 0
9 47 39 62 40 4 0 45 -30 90 -66z m1058 -46 c12 -62 25 -123 28 -135 3 -17 0
-23 -14 -23 -15 0 -24 19 -47 98 -15 53 -30 111 -33 129 -6 31 -4 33 36 42 4
0 17 -50 30 -111z m304 71 c9 -22 42 -66 73 -97 56 -56 38 -50 -42 13 -22 18
-48 35 -57 38 -18 6 -24 41 -12 71 10 26 21 19 38 -25z m399 -9 c-14 -25 -24
-30 -47 -28 -38 4 -44 23 -9 26 22 1 24 0 13 -8 -13 -8 -12 -10 3 -10 9 0 17
4 17 9 0 10 28 41 36 41 3 0 -3 -14 -13 -30z m-849 3 c3 -10 17 -63 32 -118
14 -55 29 -105 31 -112 3 -8 -3 -13 -15 -13 -20 0 -34 27 -46 90 -3 14 -14 50
-25 80 -12 30 -21 63 -21 72 0 24 37 24 44 1z m3256 -33 c-14 -4 -32 -8 -40
-9 -13 -1 -13 0 0 9 8 5 26 9 40 9 l25 -1 -25 -8z m137 4 c-3 -3 -12 -4 -19
-1 -8 3 -5 6 6 6 11 1 17 -2 13 -5z m-3938 -26 c20 -12 72 -50 116 -84 44 -34
106 -78 138 -98 31 -20 57 -41 57 -46 0 -24 -121 -1 -145 27 -5 6 -18 13 -28
15 -10 1 -17 7 -15 11 4 12 -44 37 -57 30 -5 -4 -7 -3 -3 2 8 8 -15 35 -30 35
-14 0 -43 36 -35 44 4 4 0 4 -8 1 -9 -3 -22 1 -29 10 -7 8 -21 15 -32 15 -19
0 -19 1 2 30 12 17 24 30 27 30 3 0 22 -10 42 -22z m3265 8 c35 -15 47 -43 45
-115 0 -29 -2 -32 -9 -16 -5 11 -9 34 -9 50 -1 47 -26 75 -66 75 -42 0 -157
-41 -233 -82 -36 -20 -57 -27 -60 -20 -2 7 -9 9 -15 5 -26 -14 1 7 53 43 96
66 219 91 294 60z m812 -11 c45 -8 92 -19 105 -24 28 -11 32 -9 -110 -51 -58
-17 -106 -32 -108 -34 -2 -2 58 -18 133 -37 75 -19 129 -35 120 -37 -9 -2 -31
1 -48 7 -51 18 -107 12 -228 -24 -62 -19 -116 -33 -118 -30 -2 2 43 18 100 35
56 17 114 35 128 40 l25 8 -26 1 c-14 1 -39 5 -55 10 -16 5 -90 26 -164 47
-124 33 -180 53 -155 54 6 0 62 -14 125 -31 126 -34 130 -34 275 8 l100 28
-55 6 c-57 6 -170 36 -170 46 0 3 10 2 23 -1 12 -4 59 -13 103 -21z m-4266
-11 c0 -2 -9 0 -20 6 -11 6 -20 13 -20 16 0 2 9 0 20 -6 11 -6 20 -13 20 -16z
m1110 -34 c0 -27 -5 -43 -15 -47 -9 -3 -18 -3 -21 0 -5 5 25 87 32 87 2 0 4
-18 4 -40z m2334 -7 c9 -57 7 -93 -4 -93 -6 0 -10 8 -8 18 2 9 -3 16 -9 15 -7
-2 -13 0 -14 5 -5 58 -9 76 -20 83 -10 6 -4 9 17 9 29 0 32 -3 38 -37z m1010
2 c19 -8 39 -14 43 -13 9 3 56 -22 51 -27 -2 -2 -38 7 -81 19 -42 12 -74 25
-70 29 9 10 16 9 57 -8z m-4514 2 c0 -2 -11 -18 -25 -37 -14 -19 -25 -29 -25
-23 0 6 9 22 21 37 18 23 29 32 29 23z m3400 -6 c0 -5 3 -23 6 -40 6 -28 4
-31 -17 -31 -20 0 -24 5 -24 33 0 30 10 46 28 47 4 0 7 -4 7 -9z m-3644 -61
c34 -33 58 -63 52 -66 -5 -3 -18 -20 -29 -38 -10 -17 -19 -25 -19 -18 0 8 10
28 22 44 l21 30 -21 -11 c-12 -7 -22 -16 -22 -21 0 -6 -4 -10 -10 -10 -5 0
-10 7 -10 16 0 8 -13 20 -30 25 -17 7 -30 18 -30 27 1 14 3 14 16 -3 10 -12
15 -14 12 -5 -2 8 -14 19 -26 25 -12 5 -22 14 -22 19 0 4 -6 4 -13 -2 -8 -7
-18 -7 -27 -1 -13 8 -11 12 10 29 39 31 59 24 126 -40z m3547 20 c-3 -11 -9
-20 -15 -20 -5 0 -4 9 2 20 6 11 12 20 14 20 2 0 2 -9 -1 -20z m-3270 -40
c-14 -25 -18 -26 -31 -14 -12 13 -12 18 3 40 13 20 19 23 31 14 12 -11 11 -16
-3 -40z m4652 22 c-6 -7 -55 11 -50 18 3 5 16 3 29 -3 14 -7 23 -13 21 -15z
m-3608 -4 c-3 -8 -6 -5 -6 6 -1 11 2 17 5 13 3 -3 4 -12 1 -19z m-1087 8 c0
-3 -4 -8 -10 -11 -5 -3 -10 -1 -10 4 0 6 5 11 10 11 6 0 10 -2 10 -4z m226
-119 c206 -161 194 -149 194 -203 0 -44 -1 -46 -14 -28 -11 14 -11 21 -3 27 7
5 2 6 -10 2 -17 -5 -23 -2 -23 10 0 9 -4 14 -8 11 -12 -7 -164 109 -264 202
-20 19 -41 31 -47 28 -7 -5 -8 -1 -4 11 9 26 24 43 37 43 6 0 70 -46 142 -103z
m2084 -59 c0 -69 -4 -108 -9 -99 -7 12 -12 11 -30 -1 -20 -14 -10 -15 109 -17
129 -2 131 -2 120 19 -6 11 -16 21 -23 22 -36 4 -43 3 -54 -5 -10 -7 -13 1
-13 37 0 44 1 46 28 46 31 0 105 -58 85 -66 -8 -4 11 -38 51 -97 58 -85 96
-148 96 -162 0 -3 -178 -5 -396 -5 l-395 0 46 63 c25 34 68 99 96 145 41 68
54 82 70 77 15 -5 19 -1 19 19 0 22 4 26 30 26 29 0 30 -2 30 -45 0 -25 5 -45
10 -45 17 0 11 -18 -7 -23 -10 -3 -4 -4 12 -2 17 1 42 6 58 10 l27 7 0 104 c0
97 1 104 20 104 19 0 20 -7 20 -112z m-2649 75 c13 -16 12 -17 -3 -4 -17 13
-22 21 -14 21 2 0 10 -8 17 -17z m169 -12 c-4 -16 -13 -38 -20 -48 -10 -16
-10 -15 -4 6 4 17 3 21 -6 16 -15 -9 -6 10 18 38 20 23 22 22 12 -12z m102
-38 c135 -119 328 -308 318 -311 -7 -3 -16 1 -20 7 -4 7 -14 13 -22 15 -17 2
-142 85 -176 116 -12 11 -22 18 -22 15 0 -3 -16 10 -36 30 -19 19 -39 33 -45
30 -5 -4 -9 -2 -9 3 0 5 -11 15 -25 22 -13 7 -21 18 -18 23 4 6 -1 8 -11 4
-14 -6 -17 -3 -12 9 4 12 2 15 -9 10 -20 -7 -19 13 1 42 21 31 37 28 86 -15z
m2298 -63 c0 -29 -4 -40 -15 -40 -11 0 -15 11 -15 40 0 29 4 40 15 40 11 0 15
-11 15 -40z m150 -10 c0 -31 4 -50 12 -50 6 0 8 -3 5 -7 -13 -12 -46 35 -50
71 -4 30 -1 36 14 36 16 0 19 -8 19 -50z m-302 28 c-3 -9 -29 -14 -74 -15
-173 -5 -695 -52 -867 -78 -55 -8 -109 -15 -120 -15 -38 0 -12 8 58 19 306 44
312 45 705 81 250 22 303 24 298 8z m897 -23 c176 -18 438 -55 445 -62 3 -3
-17 -3 -45 0 -201 25 -437 47 -585 57 -96 6 -197 15 -225 20 -81 15 238 3 410
-15z m1852 -19 c4 -3 2 -6 -3 -6 -64 -4 -110 -12 -112 -20 -7 -20 -23 -10 -20
12 2 16 12 24 33 28 30 6 91 -3 102 -14z m-153 -23 c20 -68 18 -90 -9 -111
-15 -12 -31 -19 -36 -16 -5 3 -9 -5 -9 -16 0 -15 -5 -20 -15 -17 -8 4 -17 2
-20 -3 -11 -18 -157 -110 -166 -104 -5 2 -22 -2 -38 -11 -36 -18 -44 -19 -36
-2 4 6 -1 3 -10 -8 -13 -14 -19 -16 -22 -7 -4 10 -8 10 -20 0 -14 -11 -15 -10
-8 12 4 14 10 31 12 37 9 24 -26 25 -57 3 -17 -12 -33 -20 -36 -17 -29 28 197
184 360 248 83 33 103 35 110 12z m-1149 -33 c27 -7 28 -8 5 -8 -14 -1 -43 3
-65 7 l-40 9 35 0 c19 0 49 -4 65 -8z m1214 -30 c11 -24 11 -24 -3 -6 -9 11
-16 24 -16 30 0 12 5 7 19 -24z m-3750 16 c-2 -2 -26 -6 -54 -9 -34 -4 -42 -3
-25 3 25 8 87 13 79 6z m2636 -6 c25 -11 -1 -11 -35 0 -20 6 -21 8 -5 8 11 0
29 -3 40 -8z m902 -195 c-38 -36 -72 -65 -75 -65 -4 1 24 30 62 65 37 36 71
65 75 65 3 0 -25 -30 -62 -65z m-4201 -19 c25 -19 15 -27 -41 -30 -32 -3 -53
-10 -66 -25 -11 -11 -14 -16 -7 -11 15 12 28 13 28 1 0 -5 -14 -14 -31 -20
-40 -14 -39 -14 -39 2 0 18 37 51 85 75 50 25 48 25 71 8z m4094 -10 c0 -2
-19 -16 -42 -30 l-43 -28 34 31 c30 27 51 39 51 27z m-4460 -39 c46 1 51 -1
30 -9 -29 -11 -130 -1 -130 13 0 6 9 7 23 3 12 -4 47 -7 77 -7z m428 -34 c14
-22 14 -23 -22 -23 -28 0 -44 -7 -64 -28 -44 -47 -90 -74 -112 -67 -29 9 -24
24 14 40 18 8 46 29 61 47 28 34 70 59 94 55 7 -1 20 -12 29 -24z m-551 -62
c-1 -60 -17 -77 -17 -18 0 32 9 77 16 77 2 0 2 -27 1 -59z m93 -47 c0 -11 -70
33 -70 44 0 8 14 3 35 -14 19 -14 35 -28 35 -30z m359 -77 c-15 -12 -25 -15
-27 -8 -2 6 -10 11 -18 11 -23 0 -16 13 23 47 l38 31 3 -31 c3 -23 -2 -36 -19
-50z m421 69 c8 -3 26 -23 40 -43 24 -35 25 -42 24 -189 0 -150 -1 -153 -27
-188 -30 -38 -62 -51 -159 -62 l-57 -7 -3 -111 -3 -111 -57 -3 -58 -3 0 367 0
366 143 -4 c78 -3 149 -8 157 -12z m740 -311 l0 -325 -29 0 c-16 0 -43 -3 -60
-6 l-31 -6 0 325 c0 251 3 326 12 329 7 3 34 6 60 7 l48 2 0 -326z m2900 260
l0 -65 -95 0 -95 0 0 -95 0 -95 75 0 75 0 0 -61 0 -61 -76 4 -76 5 7 -139 7
-138 -61 0 -61 0 0 193 c0 105 -3 263 -7 349 l-6 156 29 4 c16 2 86 5 157 6
l127 3 0 -66z m-3200 42 c20 -7 44 -27 58 -47 22 -33 23 -42 20 -163 l-3 -129
-32 -28 -32 -29 20 -58 c12 -32 29 -86 39 -120 l19 -63 -22 0 c-12 0 -38 -3
-58 -6 -34 -6 -35 -5 -48 38 -55 176 -53 173 -93 176 l-38 3 0 -114 c0 -129 2
-127 -87 -127 l-41 0 3 53 c1 28 3 181 4 340 l1 287 128 -1 c71 0 142 -5 162
-12z m561 -149 c28 -90 54 -167 59 -171 7 -8 25 46 85 246 l26 87 59 0 60 0 0
-310 0 -310 -52 0 -53 0 0 118 c0 64 3 122 6 127 4 6 2 21 -3 35 -8 23 -13 15
-48 -77 -48 -127 -45 -123 -81 -123 -26 0 -32 6 -48 44 -11 24 -27 70 -37 102
-10 33 -21 63 -26 69 -4 5 -8 -62 -8 -148 l0 -157 -57 0 -56 0 6 137 c4 75 7
216 7 315 l0 178 55 0 54 0 52 -162z m707 110 l-3 -53 -90 -1 -90 -2 -3 -81
-3 -81 71 0 70 0 0 -50 0 -50 -69 0 -69 0 -4 -67 c-2 -38 -2 -71 0 -75 2 -5
46 -8 98 -8 l94 0 0 -50 0 -50 -160 0 -160 0 0 310 0 310 161 0 160 0 -3 -52z
m612 0 l0 -53 -58 -1 -57 -1 -3 -261 -2 -262 -60 0 -60 0 -2 262 -3 262 -45 2
c-25 1 -51 2 -57 3 -9 1 -13 18 -13 51 l0 50 180 0 180 0 0 -52z m200 -202 c0
-285 0 -286 68 -286 70 0 67 -10 64 280 l-3 260 65 0 66 0 0 -267 c0 -153 -5
-284 -10 -305 -17 -59 -53 -78 -150 -78 -106 0 -168 25 -198 79 -21 37 -22 51
-22 305 l0 266 60 0 60 0 0 -254z m640 235 c52 -27 73 -71 78 -162 7 -121 -5
-187 -39 -221 l-28 -29 20 -65 c11 -36 18 -72 15 -80 -3 -8 -2 -12 4 -9 5 3
12 -11 15 -32 4 -21 9 -46 12 -55 4 -16 -3 -18 -51 -18 -46 0 -56 3 -56 17 0
17 -44 169 -60 211 -7 17 -18 22 -45 22 l-35 0 0 -115 0 -115 -60 0 -60 0 0
335 0 335 128 0 c105 0 133 -3 162 -19z m-3663 -7 c-3 -3 -12 -4 -19 -1 -8 3
-5 6 6 6 11 1 17 -2 13 -5z m-369 -144 c-5 -52 -12 -97 -14 -100 -11 -10 -24
27 -20 55 10 71 31 154 37 147 3 -4 2 -50 -3 -102z m388 28 l29 -33 -32 29
c-31 28 -38 36 -30 36 2 0 16 -15 33 -32z m88 10 c-9 -31 -12 -34 -25 -21 -8
8 -8 16 2 27 20 22 31 19 23 -6z m-155 -37 c43 -23 81 -60 46 -47 -11 4 -58
10 -105 13 -98 7 -131 18 -85 28 17 4 41 11 55 15 38 13 48 12 89 -9z m36 -62
c45 -12 95 -54 95 -80 0 -10 5 -21 10 -24 16 -10 12 -35 -4 -29 -8 3 -16 20
-18 37 -2 23 -8 32 -20 31 -10 -1 -16 1 -13 5 3 6 -54 28 -123 46 -12 4 -20
11 -17 16 8 12 41 11 90 -2z m21 -70 c3 -5 14 -9 26 -9 18 0 19 -2 7 -17 -12
-15 -12 -16 4 -10 9 3 17 2 17 -3 0 -19 -35 -10 -59 15 -13 14 -29 25 -37 25
-8 0 -14 4 -14 9 0 10 48 2 56 -10z m44 -255 c0 -5 -31 9 -68 31 -17 10 -32
23 -32 27 0 4 23 -6 50 -23 28 -17 50 -32 50 -35z m1120 -240 c0 -4 14 -58 30
-121 36 -138 37 -145 8 -141 -17 2 -24 11 -26 31 -3 23 -8 27 -37 27 -29 0
-34 -4 -37 -27 -2 -21 -9 -29 -26 -31 -19 -3 -23 0 -18 15 3 10 12 54 21 98
27 134 35 155 62 155 12 0 23 -3 23 -6z m310 -129 c0 -134 0 -135 -23 -135
-19 0 -28 12 -52 75 -15 41 -31 75 -34 75 -3 0 -5 -34 -4 -75 1 -73 0 -75 -23
-75 l-24 0 0 130 0 130 24 0 c21 0 28 -10 52 -70 15 -38 30 -70 33 -70 3 0 4
27 3 60 -5 73 1 90 28 90 19 0 20 -6 20 -135z m221 116 c20 -16 24 -30 27 -95
2 -42 1 -88 -2 -102 -8 -31 -58 -54 -116 -54 l-40 0 0 135 0 135 54 0 c38 0
61 -6 77 -19z m382 7 c9 -7 19 -27 23 -44 5 -26 2 -32 -14 -36 -25 -7 -32 -1
-32 24 0 13 -8 18 -31 18 -26 0 -30 -3 -27 -22 2 -14 18 -31 43 -44 59 -33 65
-41 65 -84 0 -48 -27 -70 -85 -70 -50 0 -65 14 -65 57 0 26 4 33 20 33 13 0
20 -7 20 -20 0 -26 22 -35 50 -20 32 17 20 42 -35 71 -50 25 -50 26 -50 74 0
43 3 51 25 62 32 16 72 16 93 1z m248 -7 c20 -16 24 -29 24 -71 0 -42 -4 -55
-24 -71 -13 -10 -36 -19 -52 -19 -28 0 -29 -2 -29 -45 0 -41 -2 -45 -25 -45
l-25 0 0 135 0 135 54 0 c38 0 61 -6 77 -19z m263 3 c13 -12 16 -38 16 -117 0
-56 -4 -108 -9 -116 -13 -21 -101 -26 -126 -8 -17 13 -21 29 -23 111 -5 125 6
146 78 146 31 0 54 -6 64 -16z m246 -2 c18 -15 22 -28 22 -67 -1 -27 -8 -55
-15 -63 -13 -12 -12 -21 4 -65 11 -29 19 -53 19 -54 0 -2 -11 -3 -25 -3 -20 0
-26 7 -36 43 -6 23 -13 48 -15 55 -2 6 -10 12 -19 12 -12 0 -15 -12 -15 -55 0
-52 -1 -55 -25 -55 l-25 0 0 128 c0 71 3 132 7 135 14 15 101 7 123 -11z m268
-9 c3 -20 -1 -23 -27 -23 l-31 0 0 -110 c0 -103 -1 -110 -20 -110 -18 0 -20 8
-22 113 l-3 112 -27 3 c-20 2 -28 9 -28 23 0 18 6 20 78 17 71 -3 77 -5 80
-25z m-2255 -110 c-29 -2 -77 -2 -105 0 -29 2 -6 3 52 3 58 0 81 -1 53 -3z
m2529 -10 c-40 -2 -103 -2 -140 0 -37 2 -4 3 73 3 77 0 107 -2 67 -3z"/>
<path d="M3894 6976 c-14 -15 19 -61 36 -51 17 10 11 22 -12 29 -18 5 -20 8
-9 15 7 5 9 11 5 14 -5 3 -14 -1 -20 -7z"/>
<path d="M4237 6553 c-9 -9 33 -54 44 -47 5 3 9 10 9 15 0 6 -5 7 -10 4 -6 -4
-18 -1 -26 6 -12 10 -12 14 -2 20 7 5 8 9 2 9 -6 0 -14 -3 -17 -7z"/>
<path d="M3790 6983 c0 -12 28 -38 34 -32 2 2 -5 13 -15 23 -11 11 -19 15 -19
9z"/>
<path d="M3840 6922 c0 -5 11 -22 25 -38 14 -16 25 -25 25 -20 0 4 -11 21 -25
38 -14 16 -25 25 -25 20z"/>
<path d="M3920 6823 c0 -6 8 -17 18 -24 16 -13 16 -13 2 6 -8 11 -16 22 -17
24 -2 2 -3 0 -3 -6z"/>
<path d="M3995 6720 c3 -5 11 -10 16 -10 6 0 7 5 4 10 -3 6 -11 10 -16 10 -6
0 -7 -4 -4 -10z"/>
<path d="M4041 6673 c13 -16 25 -30 27 -32 1 -2 5 -2 8 1 5 6 -42 58 -53 58
-4 0 4 -12 18 -27z"/>
<path d="M4095 6610 c10 -11 20 -20 22 -20 2 0 -2 9 -9 20 -7 11 -17 20 -22
20 -5 0 -1 -9 9 -20z"/>
<path d="M4157 6549 c11 -23 104 -121 109 -116 2 2 -24 32 -57 68 -34 35 -57
57 -52 48z"/>
<path d="M4280 6418 c0 -10 60 -71 65 -66 3 2 -11 20 -30 38 -19 19 -35 31
-35 28z"/>
<path d="M4382 6306 c7 -8 15 -12 17 -11 5 6 -10 25 -20 25 -5 0 -4 -6 3 -14z"/>
<path d="M5633 6083 c-18 -2 -33 -8 -33 -14 0 -14 64 -11 101 6 l34 14 -35 -1
c-19 -1 -50 -3 -67 -5z"/>
<path d="M5785 6320 c3 -5 13 -10 21 -10 8 0 14 5 14 10 0 6 -9 10 -21 10 -11
0 -17 -4 -14 -10z"/>
<path d="M5291 6155 c-25 -14 -49 -31 -53 -40 -13 -23 0 -18 46 17 74 57 75
60 7 23z"/>
<path d="M5545 5600 c-3 -5 -1 -10 4 -10 6 0 11 5 11 10 0 6 -2 10 -4 10 -3 0
-8 -4 -11 -10z"/>
<path d="M5500 5580 c-13 -8 -13 -10 2 -10 9 0 20 5 23 10 8 13 -5 13 -25 0z"/>
<path d="M5460 5549 c0 -5 5 -7 10 -4 6 3 10 8 10 11 0 2 -4 4 -10 4 -5 0 -10
-5 -10 -11z"/>
<path d="M5426 5340 c-27 -27 -57 -52 -67 -55 -22 -7 -33 -34 -13 -31 20 3
150 137 132 136 -2 0 -25 -23 -52 -50z"/>
<path d="M5424 5238 l-19 -23 23 19 c21 18 27 26 19 26 -2 0 -12 -10 -23 -22z"/>
<path d="M5310 5226 c7 -7 13 -7 20 0 6 6 3 10 -10 10 -13 0 -16 -4 -10 -10z"/>
<path d="M5440 5225 c-7 -9 -11 -18 -8 -20 3 -3 11 1 18 10 7 9 11 18 8 20 -3
3 -11 -1 -18 -10z"/>
<path d="M5336 5165 c-11 -8 -15 -15 -9 -15 6 0 16 7 23 15 16 19 11 19 -14 0z"/>
<path d="M5379 5153 c-13 -16 -12 -17 4 -4 9 7 17 15 17 17 0 8 -8 3 -21 -13z"/>
<path d="M5529 4993 c-13 -16 -12 -17 4 -4 16 13 21 21 13 21 -2 0 -10 -8 -17
-17z"/>
<path d="M5503 4766 c-13 -6 -23 -14 -23 -19 0 -9 36 9 45 23 3 6 5 9 3 9 -2
-1 -13 -6 -25 -13z"/>
<path d="M2936 4627 c3 -10 9 -15 12 -12 3 3 0 11 -7 18 -10 9 -11 8 -5 -6z"/>
<path d="M5345 4560 l-20 -9 20 0 c11 0 29 4 40 9 l20 9 -20 0 c-11 0 -29 -4
-40 -9z"/>
<path d="M5566 4535 c-21 -14 -41 -23 -45 -21 -3 3 -7 -3 -7 -13 0 -15 9 -12
48 16 43 31 55 43 44 43 -2 0 -20 -11 -40 -25z"/>
<path d="M5390 4511 c-19 -3 -36 -13 -38 -21 -3 -12 -1 -13 9 -2 7 6 22 12 34
11 20 0 20 0 0 -9 -14 -6 -15 -9 -5 -10 12 0 11 -4 -3 -15 -11 -7 -25 -11 -33
-8 -8 3 -14 0 -14 -6 0 -6 8 -11 18 -11 24 0 142 51 142 62 0 12 -10 10 -26
-7 -20 -19 -41 -20 -25 -1 9 11 8 15 -5 20 -8 3 -16 5 -17 5 -1 -1 -18 -5 -37
-8z"/>
<path d="M5292 4485 c-16 -19 -3 -19 22 0 14 11 16 15 5 15 -8 -1 -20 -7 -27
-15z"/>
<path d="M5190 4473 c0 -12 3 -14 8 -6 4 6 23 13 42 16 33 4 33 4 -7 5 -35 2
-43 -1 -43 -15z"/>
<path d="M5140 4466 c25 -15 45 -12 35 5 -4 5 -18 9 -33 9 l-27 -1 25 -13z"/>
<path d="M5463 4454 l-28 -26 33 22 c29 20 39 30 28 30 -3 0 -18 -12 -33 -26z"/>
<path d="M5535 4420 c-22 -10 -36 -19 -32 -19 12 -1 77 27 77 33 0 7 3 8 -45
-14z"/>
<path d="M5395 4419 c-4 -6 -13 -8 -21 -5 -15 6 -54 -26 -54 -44 0 -17 19 -11
30 10 7 13 18 19 28 16 11 -4 22 2 30 14 7 11 8 20 3 20 -6 0 -13 -5 -16 -11z"/>
<path d="M5599 4393 c-13 -16 -12 -17 4 -4 16 13 21 21 13 21 -2 0 -10 -8 -17
-17z"/>
<path d="M5467 4394 c-8 -8 1 -24 12 -24 4 0 8 7 8 15 0 16 -9 20 -20 9z"/>
<path d="M5475 4324 c-44 -24 -85 -51 -91 -59 -6 -8 -16 -15 -21 -15 -5 0 -20
-12 -34 -26 l-24 -27 30 7 c17 4 35 12 40 18 7 8 6 8 -4 3 -10 -5 -12 -4 -7 4
4 6 11 9 16 6 5 -3 21 6 37 21 15 14 44 34 63 44 40 22 100 70 85 69 -5 -1
-46 -21 -90 -45z"/>
<path d="M5407 4314 c-15 -8 -32 -12 -37 -9 -6 3 -10 1 -10 -4 0 -17 26 -13
62 9 38 23 26 26 -15 4z"/>
<path d="M5605 4271 c-17 -4 -40 -13 -50 -20 -20 -12 -20 -12 0 -5 11 4 31 8
45 9 14 1 31 3 38 4 6 0 12 6 12 11 0 11 -2 11 -45 1z"/>
<path d="M5710 4200 c-9 -6 -10 -10 -3 -10 6 0 15 5 18 10 8 12 4 12 -15 0z"/>
<path d="M5748 4113 c7 -3 16 -2 19 1 4 3 -2 6 -13 5 -11 0 -14 -3 -6 -6z"/>
<path d="M5630 4100 c-12 -8 -12 -10 5 -10 11 0 27 5 35 10 12 8 12 10 -5 10
-11 0 -27 -5 -35 -10z"/>
<path d="M5713 4093 c9 -2 25 -2 35 0 9 3 1 5 -18 5 -19 0 -27 -2 -17 -5z"/>
<path d="M4556 4498 c-10 -38 -6 -45 9 -18 17 29 18 40 6 40 -5 0 -11 -10 -15
-22z"/>
<path d="M4461 4204 c0 -11 3 -14 6 -6 3 7 2 16 -1 19 -3 4 -6 -2 -5 -13z"/>
<path d="M4441 4134 c0 -11 3 -14 6 -6 3 7 2 16 -1 19 -3 4 -6 -2 -5 -13z"/>
<path d="M4426 4095 c-3 -8 -1 -15 4 -15 6 0 10 7 10 15 0 8 -2 15 -4 15 -2 0
-6 -7 -10 -15z"/>
<path d="M8178 4169 c-10 -5 -15 -16 -12 -24 9 -21 19 -19 38 10 18 27 6 33
-26 14z"/>
<path d="M6211 3924 c0 -11 3 -14 6 -6 3 7 2 16 -1 19 -3 4 -6 -2 -5 -13z"/>
<path d="M6330 3919 c0 -5 5 -7 10 -4 6 3 10 8 10 11 0 2 -4 4 -10 4 -5 0 -10
-5 -10 -11z"/>
<path d="M6275 3860 c-3 -5 -1 -10 4 -10 6 0 11 5 11 10 0 6 -2 10 -4 10 -3 0
-8 -4 -11 -10z"/>
<path d="M5240 3780 c0 -5 5 -10 11 -10 5 0 7 5 4 10 -3 6 -8 10 -11 10 -2 0
-4 -4 -4 -10z"/>
<path d="M5222 3749 c2 -7 10 -15 17 -17 8 -3 12 1 9 9 -2 7 -10 15 -17 17 -8
3 -12 -1 -9 -9z"/>
<path d="M5194 3682 c3 -5 0 -13 -6 -15 -8 -3 -6 -6 5 -6 19 -1 23 14 5 25 -6
4 -8 3 -4 -4z"/>
<path d="M5297 3678 c2 -5 10 -8 18 -8 8 0 16 3 18 8 3 4 -5 7 -18 7 -13 0
-21 -3 -18 -7z"/>
<path d="M5108 3673 c7 -3 16 -2 19 1 4 3 -2 6 -13 5 -11 0 -14 -3 -6 -6z"/>
<path d="M5300 3651 c0 -5 9 -7 20 -4 11 3 20 7 20 9 0 2 -9 4 -20 4 -11 0
-20 -4 -20 -9z"/>
<path d="M5173 3643 c9 -2 23 -2 30 0 6 3 -1 5 -18 5 -16 0 -22 -2 -12 -5z"/>
<path d="M4755 3660 c-17 -33 -18 -40 -7 -40 4 0 12 16 18 35 13 43 10 45 -11
5z"/>
<path d="M3228 2863 c7 -3 16 -2 19 1 4 3 -2 6 -13 5 -11 0 -14 -3 -6 -6z"/>
<path d="M3480 2450 c0 -139 0 -140 23 -140 34 0 90 18 99 32 4 7 8 59 8 115
0 121 -7 133 -81 133 l-49 0 0 -140z"/>
<path d="M4358 2063 c7 -3 16 -2 19 1 4 3 -2 6 -13 5 -11 0 -14 -3 -6 -6z"/>
<path d="M3930 2464 c0 -105 2 -115 18 -111 9 3 34 8 54 12 48 8 60 31 60 111
-1 100 -3 104 -73 104 l-59 0 0 -116z"/>
<path d="M3913 2120 c0 -25 2 -35 4 -22 2 12 2 32 0 45 -2 12 -4 2 -4 -23z"/>
<path d="M4932 2140 c0 -14 2 -19 5 -12 2 6 2 18 0 25 -3 6 -5 1 -5 -13z"/>
<path d="M6415 2149 c-4 -6 -5 -12 -2 -15 2 -3 7 2 10 11 7 17 1 20 -8 4z"/>
<path d="M6238 2133 c7 -3 16 -2 19 1 4 3 -2 6 -13 5 -11 0 -14 -3 -6 -6z"/>
<path d="M6230 2060 c-8 -5 -10 -10 -5 -10 6 0 17 5 25 10 8 5 11 10 5 10 -5
0 -17 -5 -25 -10z"/>
<path d="M6654 2581 c-5 -3 -10 -54 -11 -113 l-3 -107 54 2 c76 3 86 15 86
102 0 88 -15 112 -76 119 -23 2 -45 1 -50 -3z"/>
<path d="M6841 2124 c0 -11 3 -14 6 -6 3 7 2 16 -1 19 -3 4 -6 -2 -5 -13z"/>
<path d="M6542 2105 c0 -16 2 -22 5 -12 2 9 2 23 0 30 -3 6 -5 -1 -5 -18z"/>
<path d="M6800 2026 c0 -2 13 -6 29 -8 17 -2 28 -1 25 4 -5 8 -54 12 -54 4z"/>
<path d="M4297 1781 c-10 -47 -9 -51 8 -51 16 0 19 31 6 65 -7 16 -9 14 -14
-14z"/>
<path d="M4780 1771 c0 -92 5 -103 43 -93 14 4 17 16 17 81 0 79 -9 101 -42
101 -16 0 -18 -10 -18 -89z"/>
<path d="M5410 1810 c0 -36 4 -50 14 -50 33 0 46 13 46 44 0 36 -15 56 -42 56
-15 0 -18 -9 -18 -50z"/>
<path d="M5673 1853 c-9 -3 -13 -31 -13 -89 l0 -84 29 0 c35 0 41 13 41 94 0
75 -15 96 -57 79z"/>
<path d="M5920 1815 c0 -37 3 -45 18 -45 10 0 23 5 30 12 17 17 15 65 -4 72
-36 14 -44 7 -44 -39z"/>
</g>
</svg>
